<?xml version="1.0" standalone="no"?>
<!DOCTYPE svg PUBLIC "-//W3C//DTD SVG 20010904//EN"
 "http://www.w3.org/TR/2001/REC-SVG-20010904/DTD/svg10.dtd">
<svg version="1.0" xmlns="http://www.w3.org/2000/svg"
 width="2048.000000pt" height="2048.000000pt" viewBox="0 0 2048.000000 2048.000000"
 preserveAspectRatio="xMidYMid meet">

<g transform="translate(0.000000,2048.000000) scale(0.100000,-0.100000)"
fill="#000000" stroke="none">
<path d="M10005 19464 c-408 -31 -624 -67 -1009 -170 -256 -68 -426 -125 -671
-226 -69 -28 -351 -172 -455 -231 -170 -98 -467 -303 -615 -425 -49 -41 -110
-90 -135 -110 -62 -50 -332 -320 -417 -417 -151 -172 -278 -346 -275 -378 0
-9 -3 -15 -7 -13 -10 7 -39 -25 -79 -88 -36 -56 -34 -76 3 -31 24 30 24 30 25
6 0 -13 -3 -22 -6 -18 -13 13 -76 -83 -73 -112 2 -28 -1 -36 -10 -22 -6 10
-13 5 -25 -20 -19 -37 -16 -44 15 -34 17 6 19 9 8 16 -12 8 -12 11 1 19 8 5
21 10 27 10 7 0 15 11 19 25 7 27 18 32 30 13 4 -6 2 -14 -4 -16 -7 -2 -12
-12 -12 -23 0 -11 -7 -22 -15 -25 -8 -3 -17 -21 -21 -40 -3 -19 -10 -34 -14
-34 -12 0 -41 -61 -34 -71 3 -5 -2 -12 -10 -15 -9 -3 -16 -12 -16 -18 0 -22
-25 -66 -37 -66 -16 0 -17 -12 -1 -28 7 -7 8 -12 2 -12 -15 0 -36 -49 -28 -62
4 -7 2 -8 -4 -4 -8 5 -12 -1 -12 -18 0 -14 -4 -28 -10 -31 -5 -3 -10 -15 -10
-26 0 -10 -4 -19 -10 -19 -5 0 -10 -9 -10 -20 0 -11 -4 -20 -10 -20 -5 0 -10
-15 -10 -34 0 -19 -5 -36 -10 -38 -6 -2 -13 -17 -16 -33 -3 -17 -9 -31 -15
-33 -5 -2 -6 -15 -3 -28 5 -17 2 -24 -9 -24 -9 0 -14 -7 -12 -17 1 -10 0 -22
-4 -28 -3 -5 -7 -21 -9 -35 -2 -13 -8 -27 -13 -31 -6 -3 -9 -10 -8 -15 4 -18
-14 -74 -23 -74 -6 0 -8 -9 -5 -20 3 -13 0 -20 -9 -20 -11 0 -13 -7 -8 -26 5
-20 4 -25 -6 -19 -9 5 -10 2 -6 -13 4 -11 2 -23 -3 -26 -6 -4 -8 -13 -4 -22 3
-9 0 -14 -7 -12 -7 2 -15 -3 -17 -9 -3 -7 0 -13 6 -13 16 0 14 -30 -2 -36 -8
-3 -15 -17 -16 -32 -4 -58 -8 -74 -20 -81 -8 -6 -9 -15 -2 -34 9 -22 8 -25 -6
-20 -12 5 -14 1 -9 -15 4 -11 2 -23 -4 -27 -5 -3 -10 -13 -10 -21 0 -10 5 -12
13 -7 6 4 4 -5 -6 -21 -10 -15 -16 -34 -13 -43 3 -8 0 -20 -7 -28 -7 -7 -12
-28 -11 -46 1 -19 -2 -40 -8 -46 -6 -7 -8 -19 -5 -27 3 -8 -1 -20 -8 -26 -8
-7 -12 -16 -9 -21 2 -5 -2 -41 -10 -81 -8 -40 -17 -100 -21 -133 -3 -33 -8
-73 -10 -90 -14 -110 -18 -131 -23 -140 -3 -5 -7 -28 -9 -50 -2 -22 -8 -74
-13 -115 -6 -41 -12 -114 -15 -162 -2 -49 -7 -93 -10 -99 -7 -10 -11 -88 -19
-366 -2 -72 -7 -136 -10 -142 -4 -6 -3 -19 3 -29 5 -10 7 -23 3 -29 -12 -19 0
-627 14 -743 2 -19 5 -65 6 -102 1 -37 5 -65 9 -62 4 2 6 -13 4 -34 -1 -20 1
-45 6 -54 5 -10 5 -19 0 -22 -5 -3 -7 -15 -4 -27 3 -11 9 -16 12 -11 3 6 7
-26 8 -70 1 -43 7 -85 13 -93 7 -9 8 -15 1 -19 -7 -4 -7 -15 -1 -30 5 -13 6
-27 3 -30 -4 -3 -1 -6 6 -6 9 0 11 -8 7 -24 -3 -14 -2 -28 4 -31 13 -8 13 -52
0 -60 -6 -3 -12 0 -15 7 -5 14 -37 211 -61 373 -8 55 -28 183 -44 285 -97 619
-108 751 -104 1220 3 212 7 393 10 404 4 10 2 16 -3 13 -5 -3 -16 -31 -23 -62
-7 -30 -18 -55 -23 -55 -5 0 -7 -11 -5 -25 3 -14 -1 -33 -8 -42 -7 -10 -14
-28 -14 -39 0 -12 -7 -35 -15 -50 -8 -16 -15 -42 -15 -58 0 -15 -9 -67 -20
-115 -41 -176 -50 -217 -55 -266 -3 -27 -10 -59 -14 -70 -5 -11 -16 -72 -25
-135 -9 -63 -18 -131 -21 -150 -3 -19 -8 -55 -10 -80 -3 -25 -10 -78 -16 -119
-11 -73 -13 -93 -24 -203 -3 -32 -8 -84 -11 -115 -7 -76 -15 -245 -19 -413 -2
-93 1 -137 9 -142 6 -4 7 -8 1 -8 -12 0 -14 -70 -2 -87 4 -6 3 -14 -3 -18 -5
-3 -10 -20 -10 -36 0 -18 4 -28 10 -24 6 3 10 1 10 -4 0 -6 -4 -11 -10 -11
-15 0 -12 -47 3 -53 6 -3 8 -6 2 -6 -22 -2 16 -491 56 -721 91 -525 237 -1052
374 -1355 50 -111 65 -161 75 -246 31 -271 61 -438 116 -649 75 -288 134 -453
234 -655 108 -219 200 -359 373 -564 101 -119 100 -123 -1 -136 -228 -27 -649
-106 -784 -145 -89 -27 -256 -100 -318 -140 -80 -51 -150 -139 -151 -190 -1
-82 1 -147 6 -180 3 -19 6 -52 7 -73 1 -20 6 -37 11 -37 5 0 7 -15 3 -33 -14
-76 -19 -113 -18 -130 0 -9 -3 -15 -8 -12 -12 7 -44 -41 -36 -54 4 -5 1 -13
-5 -17 -6 -3 -15 -1 -20 7 -6 10 -11 6 -18 -14 -6 -15 -11 -38 -10 -50 0 -12
-5 -44 -11 -72 -18 -77 -21 -98 -21 -127 1 -15 -3 -29 -9 -33 -16 -10 -12 -60
9 -120 10 -29 17 -56 14 -59 -3 -3 0 -19 5 -36 6 -17 7 -28 3 -25 -14 8 -33
-23 -26 -44 3 -11 0 -30 -7 -42 -10 -17 -10 -23 0 -26 18 -7 14 -25 -5 -22
-10 1 -25 1 -33 0 -13 -1 -13 -2 0 -12 11 -8 12 -12 3 -16 -7 -2 -13 -16 -13
-29 0 -13 -5 -23 -11 -22 -19 5 -21 -20 -2 -25 15 -4 15 -5 -3 -6 -18 -1 -31
-31 -13 -31 4 0 9 -6 12 -14 4 -10 0 -12 -14 -9 -21 6 -41 -28 -21 -35 8 -2 9
-9 2 -21 -5 -10 -6 -21 -2 -25 3 -4 -2 -4 -13 0 -15 6 -17 4 -12 -10 4 -11 1
-19 -9 -23 -12 -5 -13 -7 -3 -14 10 -6 9 -10 -6 -16 -24 -9 -34 -39 -11 -30 9
4 18 1 22 -5 4 -6 3 -9 -2 -5 -5 3 -24 -1 -42 -8 -29 -13 -31 -16 -22 -41 6
-15 8 -29 6 -32 -3 -3 -8 3 -12 12 -8 20 -24 21 -24 1 0 -9 -7 -18 -15 -21
-11 -4 -13 -14 -8 -33 5 -22 4 -24 -9 -14 -17 14 -29 8 -22 -11 7 -18 -32 -48
-61 -48 -17 0 -32 -9 -42 -25 -11 -17 -19 -21 -26 -14 -15 15 -30 14 -21 -1 5
-8 2 -9 -9 -5 -10 3 -17 2 -17 -2 0 -5 -9 -7 -19 -4 -17 4 -20 -3 -27 -64 -13
-122 30 -311 94 -411 8 -12 13 -24 11 -26 -2 -2 -94 -50 -204 -107 -110 -56
-207 -107 -215 -113 -8 -7 -40 -25 -70 -41 -30 -15 -100 -61 -155 -102 -55
-41 -127 -93 -160 -115 -133 -91 -309 -260 -446 -429 -20 -24 -51 -60 -68 -79
-17 -19 -31 -38 -31 -42 0 -4 -6 -13 -13 -20 -6 -8 -16 -21 -22 -29 -5 -9 -41
-63 -80 -121 -125 -187 -172 -267 -238 -408 -92 -197 -107 -229 -107 -235 0
-4 -7 -21 -15 -38 -8 -18 -23 -55 -34 -83 -11 -28 -28 -71 -39 -95 -90 -202
-142 -341 -142 -380 0 -11 -4 -19 -8 -19 -4 0 -14 -20 -21 -45 -7 -25 -17 -45
-22 -45 -17 0 -28 -78 -25 -182 1 -59 -1 -105 -6 -102 -4 3 -5 -2 -2 -10 3 -9
1 -16 -5 -16 -16 0 -27 33 -13 38 15 5 16 22 2 22 -14 0 -33 -52 -22 -59 16
-10 7 -97 -13 -127 -11 -16 -18 -39 -16 -51 1 -14 -3 -23 -11 -23 -10 0 -9 -3
2 -10 13 -9 11 -13 -9 -29 -18 -14 -21 -20 -10 -24 11 -4 8 -11 -11 -26 -14
-11 -19 -21 -12 -21 6 0 12 -9 12 -20 0 -14 -7 -20 -22 -20 -13 0 -18 -4 -13
-8 14 -9 17 -52 4 -52 -5 0 -9 -7 -9 -15 0 -8 -5 -15 -11 -15 -5 0 -9 -10 -7
-22 2 -15 -2 -23 -12 -23 -9 0 -14 -8 -13 -20 2 -11 -3 -30 -9 -43 -10 -19 -9
-25 2 -32 14 -9 7 -14 -12 -11 -5 0 -8 -7 -9 -17 -4 -87 -24 -172 -42 -172 -4
0 -5 -11 -1 -24 3 -13 1 -27 -5 -30 -5 -4 -8 -13 -5 -21 3 -7 -2 -25 -11 -38
-13 -20 -13 -26 -3 -30 8 -4 7 -6 -4 -6 -14 -1 -18 -10 -18 -44 0 -24 -5 -48
-10 -53 -6 -6 -11 -29 -13 -52 -1 -28 -7 -42 -16 -42 -8 0 -11 -6 -7 -15 3 -8
2 -15 -3 -15 -7 0 -22 -55 -26 -95 0 -5 -3 -14 -7 -20 -10 -17 -13 -59 -4 -73
4 -8 3 -11 -5 -10 -6 2 -13 -2 -15 -7 -4 -11 134 -80 143 -72 2 3 22 83 43
178 64 289 199 870 216 934 18 67 99 292 114 315 5 8 12 12 15 8 3 -3 -23 -93
-58 -199 -42 -123 -93 -313 -141 -519 -167 -712 -176 -750 -194 -750 -9 1 -46
7 -82 15 -92 20 -90 21 -90 -29 0 -25 -4 -47 -9 -50 -5 -3 -16 -47 -26 -98
-10 -51 -22 -101 -27 -110 -4 -10 -15 -48 -22 -85 -8 -37 -24 -108 -35 -158
-12 -49 -23 -99 -26 -110 -2 -11 -18 -76 -34 -145 -17 -69 -35 -156 -40 -195
-12 -80 -46 -251 -56 -278 -7 -16 264 -17 5595 -17 l5602 0 -7 198 c-3 108
-13 319 -21 467 -8 149 -17 377 -21 507 l-6 237 71 148 c90 187 102 229 79
278 -32 67 -124 82 -167 28 -22 -28 -26 -82 -10 -114 13 -24 61 -49 97 -50 25
-1 23 -2 -11 -11 -32 -9 -45 -8 -70 6 -76 41 -102 147 -48 198 40 39 100 54
148 38 54 -18 99 -50 119 -83 27 -46 12 -96 -81 -277 l-86 -164 7 -191 c3
-104 13 -318 21 -474 8 -157 14 -387 14 -512 l0 -228 264 0 264 0 -4 92 c-18
422 -26 723 -21 770 9 91 44 153 147 260 50 53 97 95 103 94 6 -1 16 8 22 21
5 12 12 22 15 22 14 0 741 734 756 762 16 30 17 94 13 773 -1 407 -2 834 -1
948 2 201 3 207 21 198 15 -8 18 -19 15 -48 -2 -21 -6 -83 -9 -138 -3 -55 -9
-140 -14 -190 -11 -120 -12 -328 -2 -390 8 -47 8 -48 10 -12 0 20 5 37 10 37
4 0 8 -73 7 -162 0 -90 0 -351 2 -581 l3 -419 -38 -46 c-20 -26 -227 -236
-459 -467 -232 -231 -445 -449 -474 -485 -94 -115 -94 -114 -86 -414 3 -144 9
-343 12 -443 l7 -183 498 0 498 0 20 27 c12 14 24 24 26 21 3 -3 -1 -11 -10
-18 -8 -7 -15 -17 -15 -23 0 -15 41 41 45 61 1 9 7 16 13 15 10 -2 48 43 51
60 1 4 4 7 7 8 17 2 10 -14 -29 -67 -24 -32 -46 -65 -51 -71 -6 -10 280 -13
1414 -13 l1422 0 -6 25 c-3 13 -8 53 -11 87 l-5 63 22 -87 23 -88 82 0 c46 0
83 3 83 6 0 4 -11 57 -25 118 -13 61 -33 154 -44 206 -11 52 -42 205 -70 339
-52 251 -58 291 -42 291 10 0 23 -52 71 -300 17 -85 42 -204 55 -265 13 -60
36 -164 50 -230 14 -66 28 -130 30 -143 9 -39 23 -23 15 18 -9 52 6 52 20 0
l11 -40 231 0 230 0 -48 57 c-39 46 -43 53 -19 36 17 -12 46 -37 64 -57 l35
-36 127 0 c113 0 128 2 132 17 4 17 5 17 6 1 1 -16 12 -18 89 -18 l89 0 -44
223 c-42 213 -135 640 -204 931 -22 90 -38 140 -48 144 -13 5 -108 -15 -154
-33 -30 -12 -47 46 -132 440 -79 369 -177 751 -227 890 -29 79 -40 95 -67 95
-20 0 -23 2 -11 10 32 21 60 11 76 -25 47 -112 162 -565 264 -1040 58 -265 76
-344 82 -350 2 -2 38 13 81 33 89 42 85 17 40 210 -18 80 -30 112 -39 108 -16
-6 -28 24 -14 38 8 8 9 6 5 -6 -5 -13 -2 -18 9 -18 12 0 13 5 7 23 -5 12 -14
21 -20 20 -6 -2 -13 9 -17 25 -3 15 -8 34 -11 42 -2 8 -6 31 -8 50 l-3 35 11
-37 c14 -41 34 -67 23 -28 -4 14 -12 47 -18 73 -8 35 -14 45 -20 35 -7 -9 -8
-4 -3 15 4 19 2 26 -5 22 -5 -3 -10 1 -10 10 0 9 4 14 9 11 5 -4 7 3 4 15 -4
16 -8 18 -14 7 -5 -8 -6 1 -2 21 5 29 4 33 -10 28 -11 -4 -17 -1 -17 9 0 9 5
12 12 8 8 -5 9 0 5 17 -4 13 -7 30 -7 37 0 7 -4 10 -10 7 -5 -3 -7 0 -4 9 3 8
-9 69 -27 137 -18 68 -34 118 -37 111 -6 -19 -22 -14 -22 7 0 31 -11 51 -24
44 -7 -4 -7 -2 1 7 9 9 9 19 2 32 -6 11 -12 29 -15 41 -2 12 -14 30 -26 40
-17 14 -18 17 -5 13 19 -6 21 1 8 23 -5 7 -14 10 -20 7 -15 -10 -14 7 1 22 10
10 8 14 -10 19 -16 4 -21 11 -17 23 3 10 -3 25 -16 36 l-21 19 24 7 23 6 -22
7 c-25 8 -31 25 -10 25 6 1 -1 12 -18 26 -16 15 -25 23 -18 20 15 -8 27 10 13
19 -6 4 -8 11 -4 16 3 5 10 7 16 3 5 -3 3 7 -5 22 -8 16 -17 67 -19 114 -5 87
-34 177 -108 337 -17 35 -30 67 -30 69 0 10 -53 140 -87 214 -19 41 -49 111
-66 155 -45 115 -178 379 -229 455 -23 36 -56 90 -72 120 -16 30 -63 105 -104
165 -151 222 -287 375 -470 527 -48 40 -89 75 -92 78 -7 7 -106 80 -165 122
-166 117 -227 153 -490 288 -99 51 -184 97 -189 101 -6 5 4 36 23 75 43 88 71
202 70 283 0 36 -3 60 -6 53 -6 -15 -23 -6 -23 14 0 17 -55 74 -71 74 -6 0 -9
6 -6 14 4 9 -4 16 -24 20 -26 5 -29 9 -24 27 5 14 3 19 -3 15 -6 -4 -26 0 -44
8 -18 8 -27 15 -20 15 6 1 12 11 12 23 l0 22 -20 -22 c-23 -25 -35 -27 -46
-10 -5 7 -2 9 9 5 12 -5 15 1 15 24 -1 17 -4 26 -7 22 -3 -5 -17 -10 -30 -10
-22 -2 -22 -1 -6 17 22 25 16 49 -7 26 -9 -9 -25 -16 -35 -16 -17 1 -17 1 0
14 9 7 17 18 17 24 0 6 6 13 13 15 6 3 2 6 -10 6 -12 1 -25 -3 -28 -9 -3 -5
-10 -10 -16 -10 -5 0 -9 5 -9 10 0 6 7 10 16 10 8 0 13 4 9 9 -3 5 0 13 7 17
7 5 3 11 -13 17 -13 6 -27 9 -32 9 -4 -1 -2 7 5 18 15 24 4 37 -17 20 -12 -10
-15 -10 -15 4 0 9 5 16 10 16 6 0 10 7 10 15 0 18 -17 20 -23 3 -2 -7 -8 -10
-12 -5 -5 4 -3 13 3 19 18 18 14 27 -8 21 -21 -5 -28 11 -10 22 6 3 10 13 10
21 0 8 -4 14 -10 14 -5 0 -10 -7 -10 -16 0 -8 -5 -12 -10 -9 -6 4 -2 18 10 36
22 30 20 33 -15 29 -15 -1 -17 1 -8 10 6 7 9 19 6 26 -3 8 0 14 7 14 6 0 8 5
5 10 -4 7 -14 3 -25 -10 -18 -20 -40 -27 -40 -11 0 5 7 14 15 21 18 15 16 59
-3 78 -7 8 -10 18 -7 23 4 5 1 9 -4 9 -6 0 -16 -9 -23 -20 -7 -11 -17 -20 -22
-20 -6 0 -5 5 2 12 7 7 12 25 12 40 0 15 5 28 10 28 6 0 10 8 10 17 0 14 -3
13 -16 -5 -8 -12 -21 -22 -27 -22 -7 0 -6 4 3 11 11 8 12 12 2 16 -9 3 -6 17
12 51 49 93 58 124 57 207 -2 102 -2 104 -16 99 -6 -3 -11 3 -12 13 -3 36 -23
74 -35 67 -7 -5 -9 -2 -5 9 3 8 0 21 -8 27 -8 6 -11 19 -8 27 5 12 2 15 -10
10 -9 -3 -17 -2 -17 4 0 6 -4 8 -8 5 -13 -8 -37 12 -38 31 -2 28 -16 63 -24
63 -5 0 -6 -10 -4 -22 4 -21 3 -21 -7 2 -15 31 -18 60 -8 60 5 0 6 7 3 15 -4
9 0 15 10 15 9 0 16 7 16 15 0 8 -6 12 -14 9 -11 -4 -12 3 -4 42 7 33 7 49 0
52 -7 2 -6 12 3 30 40 82 54 211 29 268 -9 21 -16 42 -16 46 3 13 -86 96 -141
131 -32 20 -83 46 -115 56 -31 11 -79 29 -107 41 -86 37 -329 90 -625 136
-157 24 -295 44 -308 44 -13 0 -22 4 -20 9 2 5 50 62 108 126 172 192 325 434
425 675 137 330 226 656 270 990 31 232 43 286 86 386 75 178 201 545 244 714
44 173 124 548 134 627 6 43 19 143 30 223 37 277 45 411 46 765 0 313 -8 606
-19 675 -2 14 -7 63 -11 110 -9 127 -43 378 -71 525 -62 333 -149 708 -181
785 -8 18 -7 17 -16 63 -5 22 -12 35 -19 31 -6 -4 -8 0 -4 12 3 11 -3 48 -13
84 l-19 65 5 -100 c3 -55 9 -152 13 -215 8 -123 6 -625 -3 -725 -3 -33 -8
-114 -12 -180 -6 -129 -11 -181 -25 -260 -13 -74 -20 -114 -26 -170 -3 -29
-12 -55 -22 -63 -11 -8 -13 -15 -5 -23 9 -9 3 -83 -9 -95 -9 -8 -38 8 -38 22
0 8 6 11 15 8 15 -6 21 7 8 20 -10 9 -11 156 -2 156 4 0 9 -6 12 -12 2 -7 8
-9 13 -5 5 4 2 12 -6 17 -20 12 -24 80 -4 80 8 0 14 5 14 11 0 6 -7 8 -17 4
-14 -5 -15 -4 -6 6 8 8 9 18 3 30 -7 13 -5 19 7 24 14 5 15 8 4 15 -8 4 -11
15 -8 25 4 9 11 13 17 10 5 -3 10 -1 10 4 0 6 -7 11 -15 11 -18 0 -19 11 -2
29 10 11 10 14 0 18 -18 6 -16 33 2 33 9 0 12 6 9 15 -4 8 -10 12 -15 9 -5 -3
-9 2 -9 10 0 9 5 16 10 16 6 0 10 7 10 15 0 8 -4 15 -10 15 -5 0 -10 5 -10 11
0 5 5 7 10 4 6 -3 10 3 10 14 0 12 -5 21 -10 21 -6 0 -5 8 2 20 11 17 11 22 0
29 -10 6 -10 11 3 21 16 13 15 15 -1 27 -14 10 -15 15 -4 28 10 12 10 18 -1
31 -10 13 -10 17 1 24 11 7 11 11 1 24 -8 10 -11 26 -7 42 4 15 2 32 -5 40 -9
11 -9 18 -1 26 7 7 8 16 3 22 -5 6 -12 85 -15 176 -4 91 -9 180 -13 199 -5 27
-3 32 8 26 11 -7 12 -6 2 6 -6 8 -10 41 -9 77 1 35 -2 66 -6 68 -4 3 -6 25 -3
49 2 25 -1 47 -6 51 -6 3 -8 13 -4 22 3 8 0 19 -7 24 -10 6 -10 10 1 17 12 8
12 12 -2 26 -19 19 -22 35 -7 35 7 0 7 8 -1 22 -11 20 -14 37 -23 138 -2 19
-5 37 -6 40 -1 3 -2 9 -1 14 1 5 -1 16 -5 25 -4 9 -9 30 -10 46 -8 65 -11 81
-18 93 -4 7 -5 21 -1 31 3 12 0 21 -11 25 -12 5 -14 10 -5 19 8 10 7 19 -3 33
-10 13 -11 23 -4 31 7 9 7 13 -2 13 -8 0 -9 10 -5 29 4 21 2 30 -11 35 -13 5
-14 9 -5 20 9 11 8 18 -4 30 -9 9 -14 20 -11 25 3 5 1 22 -4 37 -5 16 -11 43
-13 59 -2 17 -9 40 -16 53 -7 13 -10 30 -7 38 3 7 -3 18 -12 24 -13 8 -14 11
-4 18 10 7 9 16 -8 45 -15 25 -18 37 -9 37 8 0 7 6 -5 19 -9 10 -14 25 -11 34
4 8 2 18 -4 22 -6 3 -11 15 -11 26 0 11 -4 18 -8 15 -4 -3 -9 10 -9 27 -1 18
-8 46 -17 62 -9 17 -16 38 -16 47 0 9 -5 20 -10 23 -6 4 -8 11 -4 16 3 5 1 15
-4 22 -5 7 -13 28 -17 47 -4 19 -11 41 -15 50 -4 8 -12 26 -18 40 -48 118 -68
160 -74 160 -5 0 -8 9 -8 20 0 11 -11 43 -25 72 -14 28 -25 58 -25 65 0 8 -7
16 -15 19 -8 4 -13 10 -10 14 3 5 -4 25 -15 44 -11 20 -16 36 -12 36 4 0 -1 5
-10 11 -10 5 -18 19 -18 30 0 11 -7 22 -16 26 -8 3 -13 12 -10 19 3 7 1 16 -4
19 -12 7 -50 88 -50 107 0 9 -9 18 -21 21 -12 3 -18 10 -14 17 4 6 -3 19 -14
29 -12 10 -21 24 -21 31 0 14 -32 74 -42 78 -5 2 -8 12 -8 23 0 10 -7 19 -15
19 -8 0 -15 5 -15 11 0 6 -10 25 -22 42 -28 39 -44 65 -57 95 -6 12 -15 22
-21 22 -5 0 -10 6 -10 14 0 7 -14 31 -30 52 -17 22 -38 49 -48 62 -9 12 -23
29 -29 37 -19 21 -16 35 10 36 12 0 16 3 10 6 -7 2 -13 13 -13 23 0 10 -9 20
-20 23 -25 6 -26 -11 -2 -29 16 -13 16 -13 0 -14 -10 0 -18 5 -18 10 0 6 -7
10 -15 10 -8 0 -15 9 -15 20 0 11 7 20 15 20 8 0 15 5 15 11 0 6 -7 8 -16 5
-10 -4 -14 -1 -11 6 2 7 12 12 21 12 23 -2 19 5 -43 72 -34 37 -51 50 -47 36
5 -13 3 -22 -3 -22 -6 0 -11 5 -11 10 0 6 -7 10 -16 10 -11 0 -14 5 -10 16 3
9 6 19 6 22 0 4 5 0 10 -8 5 -8 10 -10 10 -4 0 17 -222 229 -365 349 -33 28
-72 60 -86 73 -14 12 -71 54 -125 92 -54 38 -136 95 -182 127 -272 189 -667
386 -1027 510 -547 188 -1014 273 -1535 278 -146 1 -287 1 -315 -1z m3420
-1244 c3 -5 1 -10 -4 -10 -6 0 -11 5 -11 10 0 6 2 10 4 10 3 0 8 -4 11 -10z
m25 -40 c0 -5 -2 -10 -4 -10 -3 0 -8 5 -11 10 -3 6 -1 10 4 10 6 0 11 -4 11
-10z m40 -7 c0 -5 -5 -15 -10 -23 -7 -12 -9 -10 -7 8 1 19 17 33 17 15z m40
-39 c0 -2 -7 -4 -15 -4 -8 0 -15 4 -15 10 0 5 7 7 15 4 8 -4 15 -8 15 -10z
m70 -79 c11 -13 10 -14 -4 -9 -9 3 -16 10 -16 15 0 13 6 11 20 -6z m-10 -37
c-1 -8 -6 -6 -15 6 -20 26 -19 42 0 22 8 -8 15 -21 15 -28z m40 -38 c0 -5 -2
-10 -4 -10 -3 0 -8 5 -11 10 -3 6 -1 10 4 10 6 0 11 -4 11 -10z m60 -21 c0 -6
-4 -7 -10 -4 -5 3 -10 11 -10 16 0 6 5 7 10 4 6 -3 10 -11 10 -16z m38 -32 c2
-11 -2 -14 -17 -10 -12 3 -21 1 -21 -6 0 -6 5 -11 10 -11 6 0 10 -7 10 -16 0
-14 -3 -14 -15 -4 -8 7 -15 19 -15 26 0 8 -7 14 -15 14 -8 0 -15 5 -15 10 0
14 17 13 26 -1 5 -8 10 -6 16 5 11 20 32 16 36 -7z m-7268 -517 c0 -5 -2 -10
-4 -10 -3 0 -8 5 -11 10 -3 6 -1 10 4 10 6 0 11 -4 11 -10z m-30 -47 c0 -7 -4
-13 -9 -13 -5 0 -11 6 -14 13 -3 8 1 14 9 14 8 0 14 -6 14 -14z m-25 -42 c-3
-6 -14 -9 -25 -8 -24 2 -15 17 11 17 11 0 18 -4 14 -9z m-38 -43 c-3 -8 -6 -5
-6 6 -1 11 2 17 5 13 3 -3 4 -12 1 -19z m4303 -833 c271 -39 509 -86 650 -130
382 -118 510 -165 730 -271 289 -140 559 -317 688 -453 102 -107 122 -130 122
-140 0 -6 9 -16 20 -23 11 -7 20 -16 20 -20 0 -4 30 -50 68 -103 37 -53 84
-124 106 -158 21 -34 41 -64 45 -67 10 -8 51 -69 51 -76 0 -3 8 -18 19 -32 10
-15 36 -61 58 -103 22 -41 47 -86 56 -100 41 -63 174 -368 213 -489 24 -74 48
-144 53 -155 53 -109 176 -622 197 -825 31 -290 40 -355 49 -370 4 -6 -6 -10
-22 -11 -79 -3 108 -28 211 -29 109 0 117 -1 105 -16 -12 -15 -30 -16 -139
-10 -214 11 -223 15 -289 131 -16 28 -56 87 -89 131 -156 210 -311 334 -553
439 -223 98 -374 133 -629 145 l-165 8 205 -3 c217 -3 281 -12 430 -62 102
-34 270 -111 355 -161 41 -25 57 -32 40 -17 -44 37 -296 159 -400 194 -153 51
-226 62 -436 68 -207 6 -331 -4 -497 -38 -312 -64 -596 -221 -829 -460 -113
-115 -122 -125 -142 -160 -34 -58 -73 -129 -103 -186 -18 -35 -36 -63 -41 -63
-5 0 -7 6 -4 14 6 15 -17 16 -30 1 -4 -4 -2 -5 5 -1 6 4 12 5 12 2 0 -2 2 -11
5 -18 4 -11 -17 -7 -80 14 -173 56 -291 73 -505 72 -168 0 -210 -3 -300 -24
-58 -13 -117 -24 -132 -24 -14 -1 -24 -4 -21 -8 2 -5 -5 -8 -17 -8 -19 0 -20
1 -6 16 14 14 14 17 -3 35 -10 11 -28 44 -41 74 -14 32 -27 52 -34 48 -6 -3
-8 -3 -4 1 3 4 2 22 -4 39 -5 18 -11 42 -13 55 -2 12 -18 53 -36 90 -18 37
-32 70 -31 75 1 4 -2 7 -6 7 -5 0 -19 20 -32 45 -12 24 -27 42 -31 39 -5 -3
-9 0 -9 6 0 15 -36 61 -42 54 -3 -2 -12 10 -21 28 -9 18 -25 39 -36 46 -12 7
-21 18 -21 26 0 7 -12 26 -27 41 -36 35 -65 97 -51 106 6 4 7 12 4 18 -4 6 0
14 9 17 14 6 14 9 3 16 -9 7 -6 8 11 4 71 -15 118 76 108 211 -6 89 -13 113
-33 113 -8 0 -14 3 -14 8 0 4 -11 25 -25 47 l-25 40 6 -35 c5 -34 5 -34 -9
-11 -16 26 -113 111 -128 111 -5 0 -3 -13 6 -30 22 -43 19 -43 -25 1 -39 39
-58 50 -44 27 4 -7 -4 -4 -17 8 -31 27 -60 43 -41 23 26 -28 10 -27 -37 2 -30
19 -67 32 -95 35 -25 2 -87 15 -138 28 -389 101 -924 141 -1207 91 -88 -16
-168 -14 -157 4 3 4 -4 14 -15 21 -10 8 -19 18 -19 22 0 4 -9 17 -21 29 -15
15 -19 28 -14 46 3 13 1 39 -6 57 -10 27 -9 37 7 67 18 34 25 89 12 89 -13 0
-9 28 7 44 17 17 20 30 5 21 -5 -3 -10 3 -10 14 0 12 5 21 11 21 8 0 10 14 6
42 -4 32 -2 45 11 56 9 7 11 11 4 7 -6 -3 -2 11 10 31 12 21 17 34 10 30 -18
-11 -15 9 3 24 9 7 14 19 11 27 -3 7 -2 13 3 13 4 0 8 14 8 31 0 17 6 35 13
39 8 5 14 17 15 27 4 42 17 83 26 78 5 -4 6 0 3 8 -3 8 5 23 18 33 13 11 22
27 20 36 -5 26 37 110 51 101 7 -4 6 0 -2 10 -12 15 -12 17 2 12 10 -5 15 -1
14 12 -1 10 4 17 11 15 6 -1 12 5 12 13 0 8 5 15 12 15 6 0 9 3 6 6 -3 3 10
21 30 40 30 29 34 37 22 46 -12 8 -11 9 4 4 23 -8 47 11 39 31 -5 12 -1 14 18
8 18 -4 20 -4 10 4 -13 8 -11 13 10 30 13 11 27 20 31 21 4 0 13 6 20 13 40
37 183 136 306 211 227 138 465 245 707 320 66 20 170 52 230 71 61 19 142 43
180 54 143 41 408 84 620 101 160 13 629 3 755 -15z m-3755 -415 c3 -5 1 -10
-4 -10 -6 0 -11 5 -11 10 0 6 2 10 4 10 3 0 8 -4 11 -10z m-145 -30 c0 -5 -2
-10 -4 -10 -3 0 -8 5 -11 10 -3 6 -1 10 4 10 6 0 11 -4 11 -10z m45 0 c3 -5 1
-10 -4 -10 -6 0 -11 5 -11 10 0 6 2 10 4 10 3 0 8 -4 11 -10z m-208 -132 c-3
-8 -6 -5 -6 6 -1 11 2 17 5 13 3 -3 4 -12 1 -19z m200 -10 c-3 -8 -6 -5 -6 6
-1 11 2 17 5 13 3 -3 4 -12 1 -19z m58 -78 c3 -5 1 -10 -4 -10 -6 0 -11 5 -11
10 0 6 2 10 4 10 3 0 8 -4 11 -10z m-94 -157 c13 -16 12 -17 -3 -4 -17 13 -22
21 -14 21 2 0 10 -8 17 -17z m-264 -75 c-3 -8 -6 -5 -6 6 -1 11 2 17 5 13 3
-3 4 -12 1 -19z m230 -43 c0 -8 -4 -15 -9 -15 -10 0 -11 14 -1 23 9 10 10 9
10 -8z m-238 -38 c1 -5 -3 -5 -9 -2 -5 3 -10 16 -9 28 0 21 1 21 9 2 5 -11 9
-24 9 -28z m8 -49 c-3 -8 -6 -5 -6 6 -1 11 2 17 5 13 3 -3 4 -12 1 -19z m123
7 c0 -8 -4 -15 -8 -15 -5 0 -9 7 -9 15 0 8 4 15 9 15 4 0 8 -7 8 -15z m-239
-76 c-5 -13 -10 -19 -10 -12 -1 15 10 45 15 40 3 -2 0 -15 -5 -28z m44 22 c3
-5 1 -12 -5 -16 -5 -3 -10 1 -10 9 0 18 6 21 15 7z m130 -1 c3 -5 1 -10 -4
-10 -6 0 -11 5 -11 10 0 6 2 10 4 10 3 0 8 -4 11 -10z m115 -35 c0 -5 -5 -3
-10 5 -5 8 -10 20 -10 25 0 6 5 3 10 -5 5 -8 10 -19 10 -25z m-103 -7 c-3 -8
-6 -5 -6 6 -1 11 2 17 5 13 3 -3 4 -12 1 -19z m-40 -30 c-3 -7 -5 -2 -5 12 0
14 2 19 5 13 2 -7 2 -19 0 -25z m-167 -4 c0 -8 -4 -12 -10 -9 -5 3 -10 10 -10
16 0 5 5 9 10 9 6 0 10 -7 10 -16z m130 0 c0 -8 -5 -12 -10 -9 -6 4 -8 11 -5
16 9 14 15 11 15 -7z m7397 -6 c-3 -8 -6 -5 -6 6 -1 11 2 17 5 13 3 -3 4 -12
1 -19z m-7227 -20 c0 -13 -23 -5 -28 10 -2 7 2 10 12 6 9 -3 16 -11 16 -16z
m-100 -17 c9 -19 9 -22 -1 -19 -7 2 -14 15 -16 28 -4 27 -1 25 17 -9z m-90
-13 c0 -19 -16 -5 -17 14 -2 18 0 20 7 8 5 -8 10 -18 10 -22z m46 12 c0 -11
-4 -20 -8 -20 -10 0 -11 24 -1 33 9 9 9 10 9 -13z m-91 -20 c3 -5 1 -10 -4
-10 -6 0 -11 5 -11 10 0 6 2 10 4 10 3 0 8 -4 11 -10z m-110 -20 c3 -5 1 -10
-4 -10 -6 0 -11 5 -11 10 0 6 2 10 4 10 3 0 8 -4 11 -10z m169 -5 c3 -8 1 -15
-4 -15 -6 0 -10 7 -10 15 0 8 2 15 4 15 2 0 6 -7 10 -15z m53 -22 c1 -16 -1
-21 -4 -13 -3 8 -10 21 -16 28 -6 8 -5 12 5 12 8 0 14 -11 15 -27z m53 -8 c0
-5 -5 -3 -10 5 -5 8 -10 20 -10 25 0 6 5 3 10 -5 5 -8 10 -19 10 -25z m7389
-12 c-15 -56 -20 -63 -13 -18 6 39 11 55 19 55 2 0 -1 -17 -6 -37z m-7529 -30
c-11 -17 -11 -17 -6 0 3 10 6 24 7 30 0 9 2 9 5 0 3 -7 0 -20 -6 -30z m61 7
c5 0 9 -8 9 -19 0 -10 7 -24 15 -31 8 -7 15 -20 14 -29 0 -13 -2 -14 -6 -1 -3
8 -9 17 -13 20 -15 10 -48 78 -42 85 4 4 8 0 10 -9 2 -9 8 -16 13 -16z m-94
-2 c-3 -8 -6 -5 -6 6 -1 11 2 17 5 13 3 -3 4 -12 1 -19z m154 -2 c5 3 9 -2 9
-10 0 -9 -4 -16 -10 -16 -5 0 -10 2 -10 4 0 2 -2 10 -3 18 -2 7 -2 10 0 5 3
-4 9 -5 14 -1z m-79 -56 c5 0 6 -5 3 -10 -3 -6 1 -13 9 -16 9 -3 16 -12 16
-20 0 -24 -17 -15 -30 16 -7 17 -16 30 -21 30 -5 0 -9 10 -8 23 l0 22 11 -22
c6 -13 15 -23 20 -23z m7509 17 c-10 -9 -11 -8 -5 6 3 10 9 15 12 12 3 -3 0
-11 -7 -18z m-7567 -23 c3 -8 2 -12 -4 -9 -6 3 -10 10 -10 16 0 14 7 11 14 -7z
m7526 6 c0 -5 -5 -10 -11 -10 -5 0 -7 5 -4 10 3 6 8 10 11 10 2 0 4 -4 4 -10z
m-7491 -80 c0 -8 -6 -4 -13 10 -8 14 -12 29 -8 34 6 10 20 -20 21 -44z m-53
-7 c-11 -11 -17 4 -9 23 7 18 8 18 11 1 2 -10 1 -21 -2 -24z m124 7 c0 -5 -2
-10 -4 -10 -3 0 -8 5 -11 10 -3 6 -1 10 4 10 6 0 11 -4 11 -10z m-286 -16 c3
-8 2 -12 -4 -9 -6 3 -10 10 -10 16 0 14 7 11 14 -7z m206 -60 c0 -2 -3 -4 -7
-4 -12 0 -33 52 -26 63 4 7 33 -43 33 -59z m7590 50 c0 -8 -5 -12 -10 -9 -6 4
-8 11 -5 16 9 14 15 11 15 -7z m-7651 -11 c-4 -23 2 -43 11 -38 14 8 13 -41
-1 -67 -8 -15 -8 -22 1 -28 9 -5 10 -17 5 -36 l-8 -29 -9 30 c-5 17 -10 36
-10 43 -2 20 -28 13 -28 -8 0 -11 5 -20 10 -20 6 0 10 -11 10 -25 0 -29 -16
-34 -23 -7 -3 9 -5 2 -6 -15 -1 -35 7 -41 27 -21 9 9 12 9 12 0 0 -7 -5 -12
-11 -12 -7 0 -9 -11 -6 -30 8 -39 -9 -49 -18 -10 -4 17 -11 27 -17 24 -7 -5
-8 14 -3 61 4 44 3 70 -4 74 -6 4 -7 12 -1 21 8 13 10 12 10 -2 0 -10 4 -18 9
-18 16 0 19 39 4 60 -8 11 -13 25 -11 31 2 5 12 -11 23 -36 11 -24 23 -45 26
-45 16 0 17 33 3 55 -9 14 -14 32 -10 40 6 15 17 21 15 8z m79 -78 c-3 -3 -9
2 -12 12 -6 14 -5 15 5 6 7 -7 10 -15 7 -18z m-35 -38 c-3 -5 -9 -3 -14 4 -4
7 -5 17 -2 22 3 5 9 3 14 -4 4 -7 5 -17 2 -22z m-206 -9 c-3 -7 -5 -2 -5 12 0
14 2 19 5 13 2 -7 2 -19 0 -25z m7863 22 c0 -5 -4 -10 -10 -10 -5 0 -10 5 -10
10 0 6 5 10 10 10 6 0 10 -4 10 -10z m-7798 -22 c-7 -7 -12 -8 -12 -2 0 14 12
26 19 19 2 -3 -1 -11 -7 -17z m-85 -40 c-3 -7 -5 -2 -5 12 0 14 2 19 5 13 2
-7 2 -19 0 -25z m100 0 c-3 -7 -5 -2 -5 12 0 14 2 19 5 13 2 -7 2 -19 0 -25z
m143 28 c0 -3 -4 -8 -10 -11 -5 -3 -10 -1 -10 4 0 6 5 11 10 11 6 0 10 -2 10
-4z m-20 -46 c0 -5 -5 -10 -11 -10 -5 0 -7 5 -4 10 3 6 8 10 11 10 2 0 4 -4 4
-10z m-117 -68 c14 -17 18 -131 5 -155 -7 -14 -12 -16 -18 -8 -4 7 -13 -9 -23
-41 -20 -65 -31 -123 -19 -93 9 19 9 19 16 -3 7 -22 9 -22 20 -6 8 11 15 13
19 7 4 -6 0 -13 -8 -17 -17 -6 -21 -36 -4 -36 5 0 7 -5 3 -12 -5 -8 -11 -5
-17 10 -11 24 -22 28 -33 11 -5 -8 -9 -8 -14 1 -4 7 -10 8 -13 4 -3 -5 1 -15
9 -22 8 -7 14 -8 14 -2 0 5 5 10 10 10 6 0 10 -7 10 -15 0 -8 -4 -15 -10 -15
-5 0 -10 -7 -10 -15 0 -8 5 -15 10 -15 6 0 10 5 10 12 0 6 3 9 6 6 12 -12 -16
-47 -33 -41 -11 4 -14 2 -11 -8 3 -8 14 -13 26 -11 12 2 22 -1 22 -7 0 -6 -7
-8 -17 -4 -14 5 -15 1 -10 -26 7 -33 -12 -68 -28 -53 -4 4 -5 -5 -1 -21 5 -20
2 -29 -9 -33 -18 -7 -20 -40 -2 -48 6 -3 3 -4 -8 -3 -21 2 -22 -4 -9 -37 6
-16 4 -18 -13 -14 -15 4 -20 1 -18 -11 1 -9 10 -15 19 -15 22 2 20 -13 -3 -25
-15 -8 -18 -21 -17 -57 1 -25 -2 -48 -6 -50 -5 -3 -8 -16 -8 -30 0 -13 -5 -24
-10 -24 -7 0 -7 -7 1 -21 8 -15 8 -19 0 -15 -6 4 -12 4 -12 -1 -23 -142 -34
-193 -41 -193 -5 0 -6 -9 -3 -20 4 -12 2 -26 -3 -33 -6 -7 -12 -45 -15 -85 -2
-40 -9 -78 -16 -85 -14 -14 -15 -41 -1 -32 6 3 10 0 10 -9 0 -8 -5 -16 -11
-18 -6 -2 -12 -38 -13 -85 -2 -44 -6 -86 -10 -92 -4 -6 -4 -16 0 -22 10 -16
12 -79 3 -84 -4 -3 -5 -14 -2 -25 3 -11 -1 -27 -8 -36 -8 -9 -9 -18 -3 -22 10
-8 14 -162 4 -162 -12 0 -30 214 -30 353 0 76 7 204 15 285 8 81 17 176 21
212 3 37 13 73 21 83 12 12 13 17 3 17 -9 0 -10 4 -2 13 6 7 13 32 16 56 3 23
10 49 17 57 9 11 9 21 0 41 -9 20 -9 28 0 34 7 4 9 17 5 34 -4 17 -3 31 4 35
6 4 12 29 13 56 1 29 8 54 17 60 11 10 12 15 2 27 -13 15 -7 47 10 47 5 0 6
-4 3 -10 -3 -5 -1 -10 5 -10 12 0 2 53 -12 58 -15 6 -8 18 11 19 13 1 21 -6
24 -20 l4 -22 2 22 c0 12 -9 31 -21 43 -17 16 -19 23 -10 32 9 9 12 9 12 0 0
-7 5 -12 11 -12 6 0 9 10 7 23 -2 12 -9 21 -16 20 -7 -2 -12 8 -12 25 1 24 2
25 11 8 9 -15 13 -16 20 -5 8 12 10 12 18 0 6 -9 10 -10 16 -2 4 7 1 19 -7 28
-7 9 -12 25 -10 36 2 12 -1 17 -7 13 -6 -4 -11 0 -11 8 0 8 5 18 10 21 6 3 10
1 10 -4 0 -26 18 -7 24 25 4 19 10 43 13 51 5 12 3 14 -7 8 -10 -6 -11 -2 -6
19 4 15 2 26 -4 26 -5 0 -9 15 -9 33 1 23 3 26 6 10 2 -13 8 -23 13 -23 13 0
19 27 8 38 -5 5 -8 20 -5 33 4 22 4 22 6 -3 0 -16 4 -28 9 -28 9 0 51 107 53
135 1 11 4 7 6 -10 3 -16 10 -36 16 -43z m7757 52 c0 -8 -5 -12 -10 -9 -6 4
-8 11 -5 16 9 14 15 11 15 -7z m-7663 -36 c-3 -8 -6 -5 -6 6 -1 11 2 17 5 13
3 -3 4 -12 1 -19z m7714 -1 c-10 -9 -11 -8 -5 6 3 10 9 15 12 12 3 -3 0 -11
-7 -18z m-7874 -29 c-3 -8 -6 -5 -6 6 -1 11 2 17 5 13 3 -3 4 -12 1 -19z m154
-39 c5 -10 4 -16 -5 -16 -6 0 -13 14 -13 31 -1 17 1 24 4 16 3 -8 9 -22 14
-31z m7704 11 c3 -5 1 -10 -4 -10 -6 0 -11 5 -11 10 0 6 2 10 4 10 3 0 8 -4
11 -10z m-7747 -94 l-15 -31 0 52 c1 48 2 51 15 31 13 -18 13 -24 0 -52z
m7812 59 c0 -8 -4 -15 -10 -15 -5 0 -7 7 -4 15 4 8 8 15 10 15 2 0 4 -7 4 -15z
m-40 -15 c0 -5 -4 -10 -10 -10 -5 0 -10 5 -10 10 0 6 5 10 10 10 6 0 10 -4 10
-10z m31 -83 c-7 -7 -9 -1 -7 19 5 40 8 43 13 15 3 -13 0 -28 -6 -34z m44 13
c3 -5 1 -10 -4 -10 -6 0 -11 5 -11 10 0 6 2 10 4 10 3 0 8 -4 11 -10z m-8035
-10 c0 -5 -5 -10 -11 -10 -5 0 -7 5 -4 10 3 6 8 10 11 10 2 0 4 -4 4 -10z
m197 -12 c-3 -8 -6 -5 -6 6 -1 11 2 17 5 13 3 -3 4 -12 1 -19z m-166 -28 c5 0
9 -7 9 -15 0 -8 -4 -15 -9 -15 -12 0 -21 26 -20 53 2 22 2 22 6 0 2 -13 9 -23
14 -23z m149 -4 c0 -3 -7 -3 -15 0 -8 4 -15 13 -15 21 0 12 2 12 15 -1 8 -8
15 -17 15 -20z m-37 5 c3 -12 -1 -22 -10 -25 -9 -4 -12 -13 -8 -26 5 -15 2
-20 -10 -20 -13 0 -15 5 -10 18 4 9 10 29 13 45 5 31 17 35 25 8z m7857 -17
c0 -8 -4 -12 -10 -9 -5 3 -10 10 -10 16 0 5 5 9 10 9 6 0 10 -7 10 -16z
m-8000 -14 c0 -11 -4 -20 -9 -20 -6 0 -9 9 -8 20 1 11 5 20 9 20 4 0 8 -9 8
-20z m8035 3 c-1 -10 2 -26 7 -35 5 -11 5 -18 -1 -18 -11 0 -24 47 -16 60 9
15 14 12 10 -7z m-15 -53 c0 -5 -4 -10 -10 -10 -5 0 -10 5 -10 10 0 6 5 10 10
10 6 0 10 -4 10 -10z m54 -16 c3 -8 2 -12 -4 -9 -6 3 -10 10 -10 16 0 14 7 11
14 -7z m-19 -35 c9 -17 14 -33 11 -37 -3 -3 -11 9 -17 27 -9 24 -14 29 -20 19
-5 -7 -9 -8 -9 -2 0 10 9 24 16 24 2 0 11 -14 19 -31z m-8055 17 c0 -3 -4 -8
-10 -11 -5 -3 -10 -1 -10 4 0 6 5 11 10 11 6 0 10 -2 10 -4z m8045 -75 c-3 -6
-11 -11 -16 -11 -5 0 -4 6 3 14 14 16 24 13 13 -3z m39 -18 c24 -68 25 -75 9
-69 -10 4 -13 2 -10 -7 3 -7 -1 -21 -9 -32 -13 -17 -14 -17 -14 13 0 20 6 35
15 38 8 4 15 12 15 20 0 10 -6 11 -25 4 -27 -10 -28 -10 -19 14 3 9 10 13 15
10 5 -3 6 2 3 10 -3 9 -2 16 4 16 5 0 12 -8 16 -17z m44 -133 c-2 -22 0 -40 4
-40 5 0 8 -9 8 -19 0 -11 5 -23 10 -26 19 -12 10 -26 -12 -20 -18 5 -20 4 -8
-4 8 -6 16 -15 16 -21 3 -23 5 -24 13 -11 8 12 11 8 16 -15 3 -16 11 -37 16
-47 7 -13 5 -24 -6 -40 -8 -12 -15 -17 -16 -12 0 6 -4 2 -7 -8 -7 -16 -9 -16
-27 -2 -15 11 -16 14 -3 9 14 -5 16 0 11 38 -4 24 -15 58 -25 77 -10 18 -17
35 -14 38 2 3 -1 21 -8 41 -12 34 -12 79 -1 91 3 2 5 -6 5 -18 0 -12 4 -19 10
-16 6 3 10 15 10 26 0 10 3 19 6 19 3 0 4 -18 2 -40z m-8111 -232 c-3 -8 -6
-5 -6 6 -1 11 2 17 5 13 3 -3 4 -12 1 -19z m8187 -43 c3 -8 1 -15 -3 -15 -5 0
-12 -7 -15 -16 -5 -14 -4 -15 9 -4 21 18 29 7 18 -26 -7 -20 -5 -36 4 -55 17
-35 11 -93 -11 -97 -9 -2 -16 3 -16 13 0 9 4 13 10 10 6 -3 7 1 4 9 -3 9 -1
16 5 16 6 0 11 5 11 11 0 8 -4 8 -13 0 -10 -8 -18 -7 -32 3 -16 12 -16 13 -1
19 20 8 21 27 0 27 -11 0 -14 6 -9 22 6 17 4 20 -9 15 -17 -7 -22 8 -6 18 6 3
10 14 10 24 0 17 18 41 31 41 4 0 9 -7 13 -15z m-6527 -151 c-3 -3 -12 -4 -19
-1 -8 3 -5 6 6 6 11 1 17 -2 13 -5z m-74 -11 c-7 -2 -19 -2 -25 0 -7 3 -2 5
12 5 14 0 19 -2 13 -5z m1494 -19 c-3 -3 -12 -4 -19 -1 -8 3 -5 6 6 6 11 1 17
-2 13 -5z m-720 -30 c-3 -3 -12 -4 -19 -1 -8 3 -5 6 6 6 11 1 17 -2 13 -5z
m168 -46 c133 -45 285 -120 399 -195 119 -79 275 -231 357 -348 65 -92 176
-299 158 -293 -6 2 -30 37 -51 78 -207 387 -498 624 -953 776 -38 13 -54 21
-35 18 19 -3 76 -20 125 -36z m5693 13 c0 -23 -4 -29 -18 -28 -10 1 -24 13
-30 27 -9 22 -9 23 3 8 18 -23 27 -23 27 2 0 32 17 23 18 -9z m1 -62 c-8 -16
-14 -18 -22 -10 -9 9 -8 14 3 21 24 16 31 11 19 -11z m11 -39 c0 -5 -2 -10 -4
-10 -3 0 -8 5 -11 10 -3 6 -1 10 4 10 6 0 11 -4 11 -10z m12 -95 c5 -49 3 -72
-5 -77 -8 -5 -8 -8 -1 -8 6 0 11 -17 11 -40 0 -22 -2 -38 -5 -35 -9 9 -16 46
-16 88 0 20 -4 37 -8 37 -4 0 -8 5 -8 11 0 5 5 7 10 4 18 -11 11 14 -7 25 -17
11 -17 11 0 6 15 -5 17 -2 11 17 -4 12 -11 24 -15 25 -17 7 -9 23 9 20 13 -3
18 -18 24 -73z m408 -90 c0 -27 -7 -30 -30 -15 -13 9 -12 12 4 25 26 19 26 19
26 -10z m-11 -87 c-4 -29 -8 -63 -8 -75 -1 -15 -6 -21 -15 -17 -14 5 -17 57
-4 70 4 4 5 18 1 32 -3 15 -1 27 8 33 24 15 26 11 18 -43z m-7897 -50 c-33
-40 -93 -122 -133 -183 -41 -60 -77 -114 -81 -119 -4 -6 -10 -8 -13 -4 -7 7
97 168 153 238 44 54 123 140 129 140 2 0 -22 -33 -55 -72z m7505 20 c-3 -8
-6 -5 -6 6 -1 11 2 17 5 13 3 -3 4 -12 1 -19z m5 -60 c-7 -7 -12 -8 -12 -2 0
14 12 26 19 19 2 -3 -1 -11 -7 -17z m368 -45 c-1 -27 -1 -27 -15 -9 -14 19
-12 36 6 36 5 0 9 -12 9 -27z m-15 -43 c3 -5 1 -10 -4 -10 -6 0 -11 5 -11 10
0 6 2 10 4 10 3 0 8 -4 11 -10z m-3 -52 c-7 -7 -12 -8 -12 -2 0 14 12 26 19
19 2 -3 -1 -11 -7 -17z m3 -28 c3 -5 1 -10 -4 -10 -6 0 -11 5 -11 10 0 6 2 10
4 10 3 0 8 -4 11 -10z m-9 -47 c-10 -10 -19 5 -10 18 6 11 8 11 12 0 2 -7 1
-15 -2 -18z m-8453 -70 c23 -12 29 -245 7 -241 -32 6 -50 68 -50 174 0 100 7
133 21 95 4 -10 14 -23 22 -28z m7815 -100 c-3 -103 -5 -118 -20 -121 -16 -3
-18 7 -18 105 0 103 7 133 32 133 5 0 7 -53 6 -117z m-3563 68 c122 -33 197
-62 178 -68 -7 -3 -41 5 -75 16 -101 32 -226 62 -328 77 l-95 14 105 -5 c75
-3 137 -13 215 -34z m-1870 19 c3 -5 1 -10 -4 -10 -6 0 -11 5 -11 10 0 6 2 10
4 10 3 0 8 -4 11 -10z m6042 -102 c-3 -7 -5 -2 -5 12 0 14 2 19 5 13 2 -7 2
-19 0 -25z m-4317 -34 c213 -44 266 -78 270 -179 4 -84 0 -126 -11 -120 -6 4
-8 13 -5 21 3 8 -1 14 -9 14 -8 0 -15 7 -15 16 0 9 -11 29 -25 46 -14 16 -25
26 -25 22 0 -4 -6 -1 -12 8 -7 9 -30 19 -51 21 -29 4 -40 1 -47 -13 -13 -24
-13 -97 0 -105 5 -3 8 -16 6 -28 -2 -12 0 -27 5 -33 4 -5 15 -62 24 -125 8
-62 19 -130 24 -149 23 -93 96 -320 115 -360 83 -168 161 -314 181 -339 14
-16 25 -32 25 -36 0 -3 32 -45 71 -93 39 -48 94 -117 124 -153 56 -69 126
-128 260 -219 44 -30 82 -58 85 -61 7 -8 171 -85 200 -94 3 -1 21 -8 40 -16
144 -63 218 -83 375 -104 169 -22 325 -15 360 16 5 5 17 9 27 9 21 0 69 28 81
47 4 7 14 13 22 13 8 0 19 9 25 20 9 18 8 20 -17 21 -15 0 17 13 72 28 188 52
326 115 500 228 117 76 275 230 378 368 124 165 226 404 283 660 22 97 28 153
32 295 3 139 7 179 20 193 8 9 18 17 21 17 3 0 5 -44 4 -97 -1 -65 6 -135 20
-208 30 -158 30 -470 -1 -720 -50 -398 -109 -672 -214 -995 -152 -464 -318
-804 -561 -1149 -122 -174 -211 -277 -401 -466 -151 -150 -432 -385 -461 -385
-5 0 0 7 11 15 18 14 18 14 -9 15 -16 0 -26 -4 -22 -10 6 -10 -7 -14 -32 -11
-7 1 -13 -3 -13 -8 0 -5 -12 -11 -27 -13 -16 -2 -27 -8 -26 -15 2 -7 -4 -13
-12 -13 -8 0 -15 -4 -15 -10 0 -5 -7 -10 -16 -10 -10 0 -14 -6 -11 -14 4 -9 0
-13 -10 -12 -15 2 -104 -45 -138 -74 -23 -19 -127 -80 -136 -80 -5 0 -9 -4 -9
-10 0 -5 -14 -17 -32 -26 -18 -9 -38 -23 -46 -30 -7 -8 -35 -24 -60 -35 -26
-12 -50 -26 -53 -31 -3 -5 -30 -22 -60 -38 -66 -37 -338 -170 -345 -170 -3 0
-24 -8 -47 -19 -80 -35 -74 -33 -196 -66 -52 -14 -122 -28 -155 -32 -80 -8
-239 -8 -296 1 -77 11 -274 48 -290 53 -8 3 -26 7 -40 9 -14 2 -26 8 -28 14
-2 5 -8 7 -13 4 -6 -3 -15 -1 -22 4 -7 5 -25 12 -42 16 -16 4 -59 27 -95 50
-36 24 -72 46 -80 50 -17 8 -35 19 -104 64 -27 17 -53 29 -59 25 -6 -4 -7 -1
-3 6 5 8 0 14 -13 18 -12 3 -21 10 -21 15 0 11 -110 118 -122 118 -4 0 -8 7
-8 15 0 8 -7 15 -16 15 -10 0 -14 5 -10 16 3 8 2 13 -3 10 -5 -3 -12 1 -15 10
-3 8 -10 13 -16 9 -5 -3 -12 6 -16 20 -3 14 -13 25 -23 25 -13 0 -13 2 -2 9
11 7 11 10 -1 17 -8 5 -17 17 -21 27 -3 9 -13 17 -21 17 -13 0 -46 56 -46 79
0 5 -6 14 -14 18 -8 4 -14 13 -14 18 0 6 -8 15 -19 20 -11 6 -18 16 -15 24 3
8 0 11 -6 7 -6 -4 -16 4 -23 16 -7 13 -19 29 -28 36 -15 12 -15 13 0 9 9 -3
16 1 16 8 0 8 -7 11 -16 7 -12 -4 -11 0 4 18 11 13 14 20 8 16 -8 -4 -13 -1
-13 8 0 14 12 20 33 17 12 -2 8 17 -5 22 -10 3 -10 8 1 21 11 13 16 14 23 4 6
-10 12 -9 23 6 9 11 15 14 15 7 0 -7 7 -19 15 -28 12 -12 13 -18 4 -29 -8 -10
-8 -14 0 -14 11 0 15 13 12 38 -1 6 7 12 19 12 11 0 19 -3 19 -7 -3 -20 2 -33
13 -33 6 0 9 3 5 6 -8 8 16 33 26 27 4 -2 7 -9 7 -14 0 -6 -4 -7 -10 -4 -5 3
-10 1 -10 -4 0 -14 6 -14 30 2 17 10 22 9 30 -3 8 -13 10 -13 10 2 0 10 5 15
13 12 8 -3 54 -6 103 -8 132 -5 232 -14 243 -20 5 -3 11 -2 13 4 2 6 14 7 34
1 22 -6 36 -5 43 2 6 6 11 7 11 3 0 -5 7 -3 15 4 10 8 15 9 15 1 0 -7 8 -8 25
-1 14 5 50 12 80 14 30 3 59 7 65 11 10 6 50 12 130 18 62 5 210 38 210 47 0
4 17 15 38 24 47 22 105 94 88 111 -21 21 -51 27 -141 27 -49 0 -93 4 -96 9
-5 9 -23 13 -76 18 -6 0 -18 7 -25 14 -7 7 -47 26 -88 41 -41 16 -84 33 -96
38 -11 5 -27 8 -35 6 -7 -2 -13 3 -11 10 1 8 -2 11 -7 8 -5 -3 -22 1 -37 9
-16 8 -35 15 -42 15 -7 0 -11 4 -8 8 6 10 -30 43 -38 35 -3 -4 -6 -1 -6 6 0 7
-5 9 -11 6 -6 -4 -10 -1 -8 6 3 29 -1 50 -11 44 -16 -10 -12 31 4 44 8 7 29
14 46 16 18 3 39 7 49 9 9 3 32 8 51 10 19 3 71 12 115 20 44 9 131 20 192 25
62 6 179 22 260 35 82 14 222 35 313 46 189 24 250 38 375 87 150 59 196 73
241 73 24 0 46 5 49 11 12 18 -4 56 -25 62 -21 5 -120 -38 -133 -59 -12 -20
-117 -56 -146 -50 -65 14 -114 18 -226 20 -66 1 -129 -1 -141 -5 -50 -17 -169
-23 -397 -19 -88 1 -115 5 -140 21 -18 10 -40 19 -49 19 -10 0 -18 4 -18 9 0
5 -10 13 -22 17 -13 4 -26 12 -30 18 -6 8 -8 7 -8 -1 0 -7 -7 -10 -15 -7 -8 4
-13 10 -10 14 3 4 -2 13 -10 20 -10 8 -15 9 -15 2 0 -7 -14 -3 -32 7 -18 10
-55 24 -83 30 -27 6 -79 18 -115 27 -75 18 -216 25 -269 14 -20 -5 -64 -11
-99 -14 -34 -4 -86 -11 -114 -16 -65 -13 -135 -13 -143 0 -3 5 -12 7 -20 3 -8
-3 -15 0 -15 6 0 10 -52 37 -57 29 -2 -2 -9 7 -18 18 -8 12 -26 25 -40 28 -14
4 -23 10 -21 15 3 5 -8 7 -24 5 -17 -2 -30 0 -30 4 0 16 -163 20 -183 4 -10
-8 -67 -25 -74 -23 -2 1 -11 -7 -21 -16 -12 -12 -14 -21 -8 -25 7 -5 4 -8 -6
-8 -12 0 -17 -9 -17 -32 0 -49 9 -89 19 -83 5 3 11 -4 15 -15 3 -11 19 -32 34
-48 16 -15 36 -43 46 -62 10 -19 33 -55 53 -81 19 -26 35 -51 35 -55 0 -5 11
-20 26 -33 14 -14 26 -27 27 -30 0 -3 6 -19 14 -36 7 -16 13 -41 14 -54 1 -13
11 -34 23 -46 26 -30 35 -65 21 -82 -6 -8 -7 -13 0 -13 15 0 22 -41 11 -62 -7
-14 -7 -24 2 -34 10 -12 9 -13 -6 -8 -15 6 -16 4 -7 -13 8 -14 8 -23 0 -31 -9
-9 -8 -12 3 -12 10 0 11 -2 2 -8 -7 -5 -14 -20 -15 -34 -2 -29 -21 -31 -41 -3
-13 17 -14 17 -20 -4 -3 -13 -10 -19 -20 -15 -8 3 -18 1 -21 -4 -3 -6 -20 -7
-40 -2 -19 4 -38 5 -41 1 -4 -3 -5 1 -3 9 1 9 0 15 -3 15 -3 0 -13 6 -22 13
-9 8 -21 11 -27 7 -5 -3 -13 1 -16 9 -3 9 -10 14 -14 11 -5 -3 -11 -1 -15 5
-3 5 -15 10 -26 10 -13 0 -19 7 -20 23 -1 16 -2 18 -6 5 -2 -10 -9 -18 -14
-18 -6 0 -7 5 -4 10 3 6 -2 10 -12 10 -17 1 -16 2 2 17 18 14 19 15 1 9 -13
-4 -23 0 -33 14 -8 11 -18 18 -22 16 -4 -3 -19 6 -33 19 -14 13 -29 21 -32 18
-3 -4 -6 -1 -6 5 0 7 -7 12 -16 12 -8 0 -12 5 -9 11 9 13 -35 60 -48 52 -6 -3
-7 -1 -4 4 4 6 0 16 -8 23 -8 7 -15 20 -15 29 0 9 -18 33 -40 54 -22 20 -39
43 -37 50 1 6 -4 11 -11 9 -8 -1 -11 2 -8 7 4 5 2 12 -4 16 -6 4 -8 10 -5 15
7 11 -13 51 -32 65 -7 6 -14 29 -15 53 -1 24 -6 42 -13 42 -6 0 -12 6 -12 14
0 8 6 12 14 9 15 -6 17 6 3 27 -7 11 -10 11 -10 2 0 -7 -4 -11 -10 -7 -10 6
-2 36 14 48 7 5 4 7 -7 3 -11 -3 -20 0 -23 9 -4 8 -11 12 -18 8 -8 -5 -8 -3 0
8 20 25 22 57 6 80 -8 12 -10 19 -4 15 7 -4 12 -2 12 3 0 6 -6 11 -14 11 -8 0
-18 4 -21 10 -3 5 0 7 9 4 12 -4 14 0 10 21 -5 29 -34 66 -34 44 0 -7 -3 -9
-6 -6 -4 4 -1 13 6 22 7 9 10 18 6 22 -3 3 -6 0 -6 -8 -1 -33 -30 57 -30 92 0
36 -7 44 -32 40 -5 0 -8 8 -8 20 0 13 -4 18 -12 13 -10 -6 -10 -5 -1 7 17 21
13 81 -5 67 -9 -8 -11 -7 -6 6 3 9 2 16 -3 16 -5 0 -10 12 -11 27 -1 15 -8 30
-14 35 -10 6 -10 10 0 20 14 14 16 32 2 23 -6 -4 -10 7 -10 25 0 22 4 29 13
24 10 -6 10 -4 0 7 -17 17 -16 29 1 29 8 0 18 5 22 12 5 7 3 8 -7 3 -12 -8
-12 -6 0 8 7 9 10 17 5 17 -5 0 -1 5 9 11 9 5 17 17 17 25 0 9 6 14 13 11 6
-2 27 9 45 24 18 16 42 29 53 29 11 0 18 4 14 9 -3 6 3 15 14 20 11 6 25 17
33 24 17 16 134 77 148 77 6 0 18 7 26 15 9 8 27 18 42 22 15 3 29 9 32 12 3
3 21 14 41 24 20 10 47 28 60 41 13 12 49 39 79 60 30 21 54 42 52 47 -1 5 5
9 13 9 9 0 33 11 55 25 22 14 44 25 50 25 5 0 10 5 10 11 0 5 4 8 9 4 6 -3 8
4 6 15 -2 11 0 18 6 15 5 -4 9 -1 9 5 0 14 13 27 75 74 154 118 359 355 434
504 12 23 24 42 27 42 3 0 2 -4 -1 -10 -3 -5 -1 -10 5 -10 7 0 10 7 6 15 -7
19 3 47 15 40 4 -3 22 18 38 47 16 29 34 58 40 65 6 7 11 15 11 18 0 3 9 15
20 27 11 12 20 30 20 39 0 10 4 20 8 23 19 11 92 314 92 380 0 12 6 30 14 41
7 11 16 34 20 50 10 39 66 159 78 163 4 2 8 10 8 17 0 7 14 28 31 46 51 55 55
107 9 117 -8 2 -16 7 -18 12 -4 9 -64 -3 -116 -25 -21 -9 -35 -11 -31 -5 12
19 64 40 152 61 162 39 333 43 483 13z m-4703 -56 c2 -25 7 -66 12 -91 5 -26
5 -47 1 -47 -4 0 -12 30 -19 68 -6 37 -14 80 -18 96 -4 21 -2 27 8 24 8 -3 14
-23 16 -50z m290 20 c-3 -8 -6 -5 -6 6 -1 11 2 17 5 13 3 -3 4 -12 1 -19z
m613 -266 c0 -202 42 -459 102 -632 38 -108 134 -293 200 -384 107 -148 105
-145 59 -97 -23 24 -44 41 -48 38 -3 -4 2 -16 12 -27 10 -11 19 -34 21 -52 2
-18 9 -57 14 -87 5 -30 8 -56 5 -59 -2 -3 0 -13 6 -24 9 -17 16 -55 23 -124 1
-11 5 -24 8 -30 6 -10 16 -60 54 -279 14 -77 25 -149 25 -160 0 -10 5 -25 11
-33 7 -8 13 -28 14 -45 1 -18 7 -45 13 -61 6 -16 13 -40 14 -55 2 -15 7 -33
12 -40 6 -10 4 -12 -4 -6 -9 5 -10 3 -2 -11 9 -17 22 -61 26 -89 0 -5 4 -26 9
-45 4 -19 8 -42 9 -50 2 -8 5 -19 9 -25 3 -5 9 -31 12 -57 4 -27 10 -48 14
-48 4 0 7 -18 7 -40 0 -25 -5 -40 -12 -40 -18 0 -16 -15 5 -31 15 -13 16 -12
3 4 -12 15 -11 17 3 17 24 0 20 -27 -9 -58 -14 -15 -25 -21 -25 -14 0 6 -5 12
-11 12 -5 0 -8 -4 -4 -9 3 -5 1 -13 -5 -16 -6 -4 -10 -3 -9 2 3 20 -2 23 -22
13 -19 -10 -20 -10 -10 9 7 13 8 22 1 26 -6 3 -13 -1 -17 -10 -4 -13 -12 -3
-29 34 -13 28 -23 57 -21 64 1 6 -4 11 -11 9 -11 -2 -72 114 -72 137 0 4 -14
39 -31 77 -16 38 -36 83 -43 99 -40 90 -115 316 -141 425 -45 190 -126 579
-135 655 -10 77 -7 208 5 255 2 8 7 47 10 85 3 39 10 97 16 131 9 53 7 73 -15
165 -14 57 -33 151 -41 209 -16 118 -26 402 -13 394 4 -3 8 -58 8 -122z m-877
83 c4 -8 2 -17 -3 -20 -6 -4 -10 3 -10 14 0 25 6 27 13 6z m23 -93 c4 -26 8
-56 9 -67 1 -11 4 -27 7 -35 3 -8 10 -47 16 -86 6 -39 14 -79 18 -90 5 -13 4
-16 -4 -9 -10 10 -72 290 -72 327 0 36 19 8 26 -40z m3981 -312 c-8 -41 -23
-97 -34 -125 -35 -87 -74 -167 -80 -162 -3 3 9 48 26 99 17 51 42 143 56 203
36 150 39 159 43 105 1 -25 -4 -79 -11 -120z m-3913 -37 c3 -21 9 -49 13 -62
4 -15 2 -22 -4 -18 -6 4 -13 26 -16 50 -3 23 -9 51 -13 62 -5 11 -4 16 3 12 6
-4 13 -24 17 -44z m26 -113 c0 -5 -2 -10 -4 -10 -3 0 -8 5 -11 10 -3 6 -1 10
4 10 6 0 11 -4 11 -10z m10 -45 c0 -8 -2 -15 -4 -15 -2 0 -6 7 -10 15 -3 8 -1
15 4 15 6 0 10 -7 10 -15z m14 -50 c3 -8 1 -15 -4 -15 -6 0 -10 7 -10 15 0 8
2 15 4 15 2 0 6 -7 10 -15z m22 -89 c4 -40 -11 -14 -20 34 -6 30 -5 32 5 16 7
-11 14 -33 15 -50z m1085 -306 c121 -177 303 -341 503 -454 45 -26 77 -46 71
-46 -19 0 -160 82 -239 138 -197 140 -364 342 -472 569 -52 109 -41 101 22
-17 31 -57 82 -143 115 -190z m-1058 201 c-6 -9 -13 6 -18 40 l-6 34 14 -35
c7 -19 12 -37 10 -39z m5055 -86 c23 -44 35 -71 26 -60 -17 22 -74 130 -74
141 0 11 3 5 48 -81z m-5051 53 c-3 -8 -6 -5 -6 6 -1 11 2 17 5 13 3 -3 4 -12
1 -19z m23 -49 c0 -6 -4 -7 -10 -4 -5 3 -10 11 -10 16 0 6 5 7 10 4 6 -3 10
-11 10 -16z m7 -51 c-3 -8 -6 -5 -6 6 -1 11 2 17 5 13 3 -3 4 -12 1 -19z
m5127 -112 c81 -106 257 -272 364 -344 118 -79 213 -123 354 -166 164 -49 214
-58 398 -66 l165 -8 -190 3 c-176 3 -198 5 -300 34 -290 80 -479 192 -680 403
-77 80 -185 218 -172 218 2 0 30 -33 61 -74z m-3844 -1665 c-6 -12 -15 -19
-21 -16 -13 8 -11 29 3 43 18 18 32 -2 18 -27z m27 7 c-3 -8 -6 -5 -6 6 -1 11
2 17 5 13 3 -3 4 -12 1 -19z m1858 -816 c-3 -3 -11 0 -18 7 -9 10 -8 11 6 5
10 -3 15 -9 12 -12z m-71 -8 c5 -14 4 -15 -9 -4 -17 14 -19 20 -6 20 5 0 12
-7 15 -16z m176 -93 c0 -6 -5 -13 -12 -17 -7 -5 -8 -3 -3 6 5 8 4 11 -3 6 -6
-4 -9 -13 -5 -21 3 -8 1 -15 -4 -15 -18 0 -22 12 -12 31 10 20 39 26 39 10z
m2960 -315 c0 -2 -8 -10 -17 -17 -16 -13 -17 -12 -4 4 13 16 21 21 21 13z
m-135 -101 c-31 -25 -45 -31 -45 -17 0 6 56 39 70 41 3 1 -8 -10 -25 -24z
m-5415 -263 c0 -5 -21 -23 -46 -41 -52 -38 -154 -137 -154 -150 0 -5 -7 -14
-15 -21 -8 -7 -12 -16 -9 -21 3 -5 -9 -24 -25 -41 -26 -28 -28 -34 -14 -39 14
-5 12 -7 -8 -12 -22 -7 -22 -8 -6 -18 9 -6 15 -15 11 -20 -4 -6 -10 -6 -19 1
-9 7 -15 8 -20 1 -3 -6 3 -18 15 -28 26 -23 26 -37 -1 -23 -11 7 -23 9 -27 6
-3 -3 0 -6 6 -6 7 0 12 -7 12 -15 0 -9 7 -18 15 -21 21 -9 19 -23 -4 -21 -11
0 -17 5 -15 9 3 4 1 8 -5 8 -5 0 -12 -9 -16 -19 -3 -11 -12 -22 -20 -25 -20
-7 -19 -26 0 -26 8 0 15 -4 15 -9 0 -5 -9 -7 -20 -4 -24 6 -25 22 -5 88 34
112 122 260 197 332 27 26 146 120 156 122 1 1 2 -3 2 -7z m7312 -64 c40 -51
58 -83 58 -100 0 -7 -9 -2 -19 11 -16 21 -19 22 -25 6 -3 -10 -9 -15 -12 -12
-4 3 -13 0 -21 -8 -24 -24 -32 -17 -27 23 11 73 8 101 -12 123 -19 22 -19 22
3 10 12 -6 37 -30 55 -53z m-7189 -94 c-3 -8 0 -14 6 -14 6 0 11 -10 10 -22 0
-15 -2 -18 -6 -8 -3 8 -14 25 -25 37 -22 24 -16 52 7 33 8 -6 11 -18 8 -26z
m7125 -102 c6 -18 -15 -14 -22 4 -4 10 -1 14 6 12 6 -2 14 -10 16 -16z m-8748
-536 c0 -3 -4 -8 -10 -11 -5 -3 -10 -1 -10 4 0 6 5 11 10 11 6 0 10 -2 10 -4z
m10236 -713 c-10 -10 -19 5 -10 18 6 11 8 11 12 0 2 -7 1 -15 -2 -18z m-10348
-38 c-3 -3 -9 2 -12 12 -6 14 -5 15 5 6 7 -7 10 -15 7 -18z m-28 -20 c11 -13
10 -14 -4 -9 -9 3 -16 10 -16 15 0 13 6 11 20 -6z m-75 -125 c3 -5 1 -10 -4
-10 -6 0 -11 5 -11 10 0 6 2 10 4 10 3 0 8 -4 11 -10z m10595 -140 c0 -5 -2
-10 -4 -10 -3 0 -8 5 -11 10 -3 6 -1 10 4 10 6 0 11 -4 11 -10z m-10670 -64
c-7 -7 -14 -6 -21 1 -9 9 -7 12 9 10 14 -1 18 -5 12 -11z m-55 -66 c-3 -5 -10
-10 -16 -10 -5 0 -9 5 -9 10 0 6 7 10 16 10 8 0 12 -4 9 -10z m-25 -65 c-7 -8
-17 -15 -23 -15 -6 0 -2 7 9 15 25 19 30 19 14 0z m10890 -5 c0 -5 -2 -10 -4
-10 -3 0 -8 5 -11 10 -3 6 -1 10 4 10 6 0 11 -4 11 -10z m40 -20 c0 -5 -2 -10
-4 -10 -3 0 -8 5 -11 10 -3 6 -1 10 4 10 6 0 11 -4 11 -10z m40 -34 c0 -3 -4
-8 -10 -11 -5 -3 -10 -1 -10 4 0 6 5 11 10 11 6 0 10 -2 10 -4z m-11040 -605
c0 -8 -23 -19 -72 -35 -12 -3 -15 -11 -11 -22 5 -14 2 -16 -20 -12 -15 3 -27
1 -27 -4 0 -8 -17 -16 -105 -54 -47 -20 -176 -83 -217 -106 -51 -29 -39 -37
15 -10 92 46 223 105 238 108 9 2 38 13 64 24 45 19 78 19 45 0 -8 -5 -30 -20
-49 -34 -19 -14 -45 -26 -57 -26 -13 0 -29 -8 -36 -18 -7 -10 -26 -22 -43 -26
-53 -13 -255 -118 -255 -133 0 -8 -4 -12 -9 -9 -13 8 -42 -4 -35 -15 3 -5 -2
-9 -10 -9 -9 0 -16 -7 -16 -15 0 -8 -10 -16 -22 -17 -13 0 -29 -2 -37 -2 -7
-1 -21 -21 -31 -46 -9 -24 -27 -48 -39 -54 -11 -5 -22 -13 -22 -18 -2 -14 -5
-22 -18 -48 -11 -24 -11 -24 -5 5 12 55 12 75 2 75 -6 0 -8 -9 -5 -20 3 -10 1
-20 -5 -22 -5 -2 -10 -10 -11 -18 -5 -27 -24 -53 -31 -42 -3 6 -2 13 4 17 5 3
10 12 10 18 0 7 -11 -1 -25 -18 -19 -23 -24 -26 -25 -12 0 24 -17 21 -23 -4
-3 -12 -10 -18 -16 -15 -5 4 -12 2 -16 -4 -3 -5 -1 -10 4 -10 6 0 11 -7 11
-15 0 -22 -15 -18 -28 8 -10 21 -11 21 -9 -5 1 -16 7 -28 15 -28 7 0 10 -5 7
-11 -5 -7 -15 -3 -29 10 -30 28 -40 26 -32 -5 6 -22 4 -25 -14 -19 -16 5 -20
2 -20 -15 0 -17 -4 -20 -20 -15 -11 4 -21 2 -21 -4 -3 -26 -4 -30 -11 -37 -5
-4 -8 1 -8 11 0 16 -13 14 -16 -3 -7 -34 -19 -52 -35 -52 -21 0 -34 -16 -19
-25 15 -9 2 -25 -15 -18 -11 4 -13 1 -9 -11 3 -9 10 -16 15 -16 5 0 9 -5 9
-12 0 -8 -3 -9 -10 -2 -6 6 -24 9 -40 6 -24 -3 -30 -9 -30 -29 0 -16 -7 -27
-20 -30 -20 -5 -29 -33 -10 -33 6 0 10 -4 10 -9 0 -5 -16 -8 -35 -5 -28 3 -33
1 -29 -11 4 -8 13 -15 22 -15 24 0 4 -14 -26 -18 -33 -4 -35 -6 -47 -50 -7
-24 -17 -38 -30 -40 -11 -2 -24 -9 -30 -14 -7 -7 -1 -9 18 -6 15 3 27 3 27 1
0 -4 -49 -25 -68 -29 -35 -7 -22 -16 16 -11 23 3 42 1 42 -4 0 -5 -7 -9 -15
-9 -19 0 -90 -29 -84 -34 2 -2 23 -1 47 4 23 4 42 3 42 -1 0 -5 -7 -9 -15 -9
-23 0 -75 -29 -75 -41 0 -8 4 -8 13 -1 8 7 16 6 24 -3 10 -11 7 -14 -20 -17
-17 -2 -30 -7 -27 -13 3 -5 -8 -12 -24 -15 -16 -3 -31 -11 -34 -18 -3 -9 2
-10 22 -2 21 8 26 7 26 -6 0 -10 -6 -14 -14 -11 -8 3 -17 3 -21 -1 -3 -4 -14
-7 -22 -7 -9 0 -18 -6 -21 -14 -3 -10 1 -12 17 -8 11 3 21 1 21 -4 0 -5 -12
-11 -27 -15 -49 -10 -61 -16 -40 -21 26 -7 21 -17 -15 -36 l-33 -16 31 3 c17
2 36 6 43 10 6 4 11 3 11 -3 0 -8 -32 -24 -52 -26 -13 0 -21 -15 -8 -15 7 0
10 -3 6 -7 -4 -5 -13 -8 -18 -8 -6 0 -13 -6 -15 -12 -3 -7 1 -13 9 -13 7 0
-12 -13 -43 -28 -53 -27 -64 -45 -36 -64 6 -3 -5 -16 -24 -27 -38 -24 -37 -25
9 -12 20 6 32 6 32 0 0 -5 -14 -12 -30 -16 -33 -6 -51 -23 -25 -23 9 0 13 -5
10 -10 -4 -6 -13 -9 -22 -8 -11 2 -16 -6 -19 -27 -2 -16 -8 -31 -14 -33 -5 -2
-10 -11 -10 -21 0 -9 -6 -23 -12 -30 -10 -11 -10 -12 -1 -7 7 4 21 2 30 -3 17
-10 17 -10 1 -11 -10 0 -18 -4 -18 -9 0 -5 -15 -16 -32 -25 l-33 -17 33 6 c19
4 32 3 32 -4 0 -5 -16 -13 -35 -17 -50 -9 -59 -29 -9 -21 32 5 36 4 20 -6 -47
-30 -61 -46 -48 -55 10 -7 6 -12 -17 -20 -17 -6 -31 -12 -31 -14 0 -12 47 -4
76 12 19 11 34 16 34 11 0 -9 -102 -61 -122 -61 -8 0 -6 -5 5 -11 9 -5 23 -7
30 -4 6 4 3 -1 -8 -9 -11 -9 -24 -15 -31 -12 -7 3 -9 -5 -6 -21 4 -21 6 -23
14 -9 5 9 13 16 18 16 19 0 9 -16 -20 -33 -22 -14 -30 -26 -30 -47 0 -16 -5
-32 -11 -35 -6 -4 -8 -13 -5 -20 3 -8 -7 -17 -25 -24 -16 -5 -29 -13 -29 -16
0 -3 5 -3 11 1 6 3 16 0 21 -7 7 -11 11 -11 15 -1 2 6 12 12 21 12 13 0 12 -3
-4 -19 -14 -14 -24 -16 -38 -9 -12 7 -22 6 -30 -2 -8 -9 -8 -14 2 -17 10 -4 8
-9 -7 -20 -23 -16 -28 -58 -8 -66 9 -4 9 -8 -3 -16 -8 -5 -17 -8 -21 -5 -4 2
-10 -6 -14 -19 -3 -12 -9 -17 -11 -10 -16 38 312 869 403 1020 18 31 33 57 33
59 0 8 117 207 168 284 194 296 353 466 636 680 194 147 279 201 369 229 20 7
37 17 37 22 0 5 7 9 15 9 8 0 24 9 35 20 11 11 26 17 35 14 8 -4 17 1 21 10 3
9 15 16 25 16 10 0 19 5 19 10 0 6 9 10 20 10 11 0 20 5 20 10 0 6 6 10 13 10
7 0 19 6 26 13 6 6 15 12 19 12 4 1 27 12 52 25 49 25 138 59 158 60 6 0 12
-4 12 -9z m11340 -211 c0 -5 -2 -10 -4 -10 -3 0 -8 5 -11 10 -3 6 -1 10 4 10
6 0 11 -4 11 -10z m365 -133 c53 -33 163 -114 180 -132 6 -6 33 -29 60 -50 28
-22 57 -46 65 -55 8 -8 40 -36 70 -60 62 -51 151 -138 195 -191 34 -41 52 -64
129 -169 31 -41 60 -80 65 -86 8 -9 58 -90 115 -187 24 -39 56 -97 87 -157 13
-25 27 -46 32 -48 4 -2 7 -10 7 -17 0 -7 13 -39 30 -70 16 -31 28 -61 25 -65
-3 -4 1 -10 9 -13 7 -3 16 -14 18 -25 5 -17 1 -20 -18 -19 -13 1 -22 7 -21 12
1 6 6 9 10 7 5 -1 6 2 3 7 -4 5 -20 13 -38 16 -26 6 -29 9 -15 17 10 5 21 7
26 3 5 -3 12 -1 16 5 3 5 -2 10 -12 10 -11 0 -28 7 -39 15 -10 8 -14 15 -9 14
23 -3 36 2 30 11 -3 5 -12 7 -20 3 -10 -3 -15 1 -15 12 0 10 5 13 12 9 7 -4 8
-3 4 5 -4 6 -15 9 -25 6 -12 -3 -17 1 -18 16 -1 15 3 19 13 15 9 -3 12 -1 9 4
-3 6 -13 10 -21 10 -8 0 -15 5 -15 10 -1 6 -2 15 -3 20 0 6 -8 15 -16 20 -13
9 -13 11 0 20 8 5 10 10 5 10 -6 0 -15 -4 -20 -9 -6 -6 -20 -4 -35 5 l-25 14
30 -7 c27 -6 29 -5 17 10 -8 9 -17 16 -20 15 -4 -1 -17 3 -28 10 -12 6 -24 9
-27 6 -3 -3 -8 -1 -12 5 -4 7 4 11 19 11 14 0 26 -4 26 -10 0 -5 5 -10 10 -10
25 0 7 29 -22 35 -18 4 -49 18 -69 32 -20 13 -46 25 -58 26 -11 1 -22 6 -25
13 -5 13 41 7 49 -7 3 -4 13 -5 22 -2 11 4 14 2 9 -5 -6 -11 22 -32 43 -32 20
0 11 18 -11 23 -16 5 -19 9 -11 19 9 10 6 13 -10 15 -12 0 -35 7 -52 14 -16 6
-36 13 -44 13 -8 1 -16 6 -18 12 -4 11 83 -6 106 -21 5 -3 12 -1 15 4 3 5 -21
19 -54 31 -71 27 -75 36 -7 15 26 -8 47 -10 47 -5 0 8 -23 16 -103 36 -15 3
-29 10 -32 14 -3 4 14 4 37 -1 56 -13 83 -6 43 10 -16 7 -43 14 -58 16 -16 1
-34 8 -40 14 -9 10 -3 11 31 7 23 -3 47 -8 52 -11 15 -9 12 4 -5 21 -8 8 -37
18 -65 21 -64 7 -66 21 -2 17 40 -3 44 -2 27 8 -11 7 -27 13 -35 14 -8 1 -28
5 -43 9 -24 5 -28 3 -23 -12 3 -10 1 -25 -4 -33 -8 -13 -10 -12 -11 5 -1 11
-2 26 -2 33 1 9 -7 12 -22 10 -15 -3 -22 -1 -18 7 3 9 22 11 61 9 45 -4 54 -2
44 8 -7 7 -20 13 -30 14 -9 0 -32 1 -49 2 -40 2 -44 22 -5 22 24 1 25 2 8 11
-13 8 -25 8 -43 0 -14 -7 -28 -9 -32 -5 -3 4 -1 9 6 11 7 2 9 11 6 19 -3 9 1
14 12 14 9 0 14 4 10 10 -3 5 -12 7 -19 4 -7 -3 -16 2 -19 10 -5 11 0 16 14
16 11 0 17 5 14 10 -10 15 -22 12 -45 -12 -11 -12 -23 -18 -27 -15 -3 4 -1 7
6 7 8 0 10 7 6 20 -5 14 -2 20 9 20 18 0 21 16 6 25 -6 4 -8 15 -5 26 4 11 2
19 -4 19 -10 0 -15 -14 -12 -32 0 -5 -4 -8 -10 -8 -7 0 -9 10 -7 24 4 17 1 23
-9 19 -7 -3 -13 2 -13 11 0 9 5 16 10 16 6 0 10 8 10 18 0 13 -2 14 -9 3 -5
-7 -14 -10 -21 -6 -9 5 -10 2 -5 -14 10 -33 -9 -25 -22 10 -13 34 -34 32 -27
-4 4 -20 4 -20 -6 2 -6 14 -8 31 -5 39 7 18 -13 54 -26 47 -5 -4 -6 -11 -3
-17 4 -7 2 -8 -4 -4 -7 4 -12 18 -12 32 0 13 -5 24 -11 24 -7 0 -9 -10 -5 -27
l7 -28 -20 25 c-11 13 -18 28 -15 31 8 14 -9 40 -22 35 -8 -3 -14 1 -14 9 0 8
-5 15 -11 15 -5 0 -7 -4 -4 -10 3 -5 1 -10 -5 -10 -8 0 -10 9 -6 24 5 20 0 26
-30 41 -19 9 -42 14 -50 11 -8 -3 -13 0 -11 7 1 7 -8 12 -20 12 -13 0 -22 4
-22 9 1 14 -25 26 -45 20 -13 -4 -17 -2 -14 7 3 8 -8 20 -26 29 -39 19 -144
89 -152 101 -3 5 3 9 13 9 15 0 16 2 3 10 -13 8 -11 11 8 16 12 4 22 10 22 15
0 8 84 -37 175 -94z m-758 -53 c-3 -3 -12 -4 -19 -1 -8 3 -5 6 6 6 11 1 17 -2
13 -5z m100 -20 c-3 -3 -12 -4 -19 -1 -8 3 -5 6 6 6 11 1 17 -2 13 -5z m211
-48 c242 -61 301 -82 471 -164 87 -43 231 -132 231 -144 0 -17 -29 -6 -86 31
-159 104 -349 184 -617 261 -95 28 -176 52 -182 54 -32 13 27 1 183 -38z
m-11908 24 c0 -5 -5 -10 -11 -10 -5 0 -7 5 -4 10 3 6 8 10 11 10 2 0 4 -4 4
-10z m-23 -63 c-7 -20 -15 -37 -20 -37 -4 0 0 16 8 36 8 20 15 39 15 42 0 3 2
3 4 1 3 -2 -1 -21 -7 -42z m53 39 c0 -3 -4 -8 -10 -11 -5 -3 -10 -1 -10 4 0 6
5 11 10 11 6 0 10 -2 10 -4z m327 -32 c-3 -3 -12 -4 -19 -1 -8 3 -5 6 6 6 11
1 17 -2 13 -5z m-172 -53 c-182 -62 -270 -100 -379 -161 -85 -48 -122 -61
-114 -41 10 26 301 160 448 206 193 60 224 57 45 -4z m12265 45 c0 -3 -4 -8
-10 -11 -5 -3 -10 -1 -10 4 0 6 5 11 10 11 6 0 10 -2 10 -4z m30 -27 c0 -5 -4
-9 -10 -9 -5 0 -10 7 -10 16 0 8 5 12 10 9 6 -3 10 -10 10 -16z m-12554 -26
c-10 -10 -19 5 -10 18 6 11 8 11 12 0 2 -7 1 -15 -2 -18z m-133 -84 c-4 -13
-9 -17 -15 -11 -11 11 -3 32 12 32 4 0 6 -9 3 -21z m10767 -187 c85 -28 180
-57 210 -65 30 -9 96 -27 145 -42 89 -27 154 -42 290 -71 57 -12 82 -12 138
-3 37 7 67 16 67 21 0 5 10 6 21 3 14 -5 19 -3 15 3 -4 6 4 9 19 8 13 -2 22 0
20 4 -6 11 51 21 72 13 10 -4 14 -2 10 4 -7 12 169 50 276 60 108 10 226 -21
422 -109 263 -118 446 -254 543 -403 l33 -50 -33 40 c-135 163 -245 245 -483
360 -181 88 -301 131 -375 134 -82 3 -339 -40 -570 -96 -73 -17 -119 -23 -150
-19 -82 11 -487 120 -700 188 -116 38 -157 58 -190 93 l-25 28 45 -25 c25 -14
115 -48 200 -76z m-10934 61 c-10 -10 -19 5 -10 18 6 11 8 11 12 0 2 -7 1 -15
-2 -18z m13104 -35 c0 -19 -2 -20 -10 -8 -13 19 -13 30 0 30 6 0 10 -10 10
-22z m-13180 -32 c0 -3 -4 -8 -10 -11 -5 -3 -10 -1 -10 4 0 6 5 11 10 11 6 0
10 -2 10 -4z m-80 -86 c0 -5 -7 -10 -16 -10 -8 0 -12 5 -9 10 3 6 10 10 16 10
5 0 9 -4 9 -10z m13340 1 c0 -17 -18 -21 -24 -6 -3 9 0 15 9 15 8 0 15 -4 15
-9z m-13313 -43 c-3 -8 -6 -5 -6 6 -1 11 2 17 5 13 3 -3 4 -12 1 -19z m-42 -8
c-3 -5 -11 -10 -16 -10 -6 0 -7 5 -4 10 3 6 11 10 16 10 6 0 7 -4 4 -10z
m13375 0 c0 -5 -4 -10 -10 -10 -5 0 -10 5 -10 10 0 6 5 10 10 10 6 0 10 -4 10
-10z m-760 -49 c295 -102 536 -270 719 -501 37 -47 90 -121 118 -165 67 -108
177 -315 169 -322 -3 -3 -13 7 -21 23 -9 16 -43 78 -75 137 -137 248 -260 405
-414 529 -128 103 -183 138 -330 211 -246 121 -345 135 -578 83 -127 -28 -174
-33 -93 -10 223 64 352 68 505 15z m770 14 c0 -8 -2 -15 -4 -15 -2 0 -6 7 -10
15 -3 8 -1 15 4 15 6 0 10 -7 10 -15z m-13430 -15 c0 -5 -5 -10 -11 -10 -5 0
-7 5 -4 10 3 6 8 10 11 10 2 0 4 -4 4 -10z m-40 -50 c0 -5 -5 -10 -11 -10 -5
0 -7 5 -4 10 3 6 8 10 11 10 2 0 4 -4 4 -10z m11810 -14 c36 -8 54 -14 40 -14
-14 -1 -52 5 -85 12 -78 18 -40 19 45 2z m-1136 -72 c38 -27 94 -67 126 -89
276 -194 352 -256 337 -272 -4 -3 -20 5 -35 19 -15 14 -52 41 -82 61 -30 20
-64 44 -75 54 -46 42 -220 174 -290 219 -41 27 -75 53 -75 58 0 13 20 2 94
-50z m2881 26 c-3 -5 -12 -10 -18 -10 -7 0 -6 4 3 10 19 12 23 12 15 0z
m-3059 -83 c29 -39 43 -66 38 -76 -4 -9 -8 -396 -10 -861 -2 -465 -4 -851 -4
-857 0 -16 -402 -427 -483 -495 -32 -26 -62 -46 -67 -43 -5 3 -17 -6 -28 -20
-11 -14 -24 -25 -30 -25 -6 0 -13 -6 -15 -12 -3 -7 -6 -8 -6 -3 -1 17 437 458
453 456 3 -1 5 1 4 2 -2 2 3 12 11 21 11 13 16 14 22 4 6 -9 9 -6 9 9 0 17 4
21 17 16 11 -4 14 -3 9 5 -4 7 -1 12 8 12 9 0 16 7 16 15 0 7 6 18 13 22 34
22 35 41 38 924 l4 876 -39 59 c-48 72 -22 54 40 -29z m3104 43 c0 -5 -5 -10
-11 -10 -5 0 -7 5 -4 10 3 6 8 10 11 10 2 0 4 -4 4 -10z m45 0 c3 -5 1 -10 -4
-10 -6 0 -11 5 -11 10 0 6 2 10 4 10 3 0 8 -4 11 -10z m5 -90 c0 -5 -2 -10 -4
-10 -3 0 -8 5 -11 10 -3 6 -1 10 4 10 6 0 11 -4 11 -10z m-13770 -20 c0 -5 -5
-10 -11 -10 -5 0 -7 5 -4 10 3 6 8 10 11 10 2 0 4 -4 4 -10z m30 -30 c0 -5 -2
-10 -4 -10 -3 0 -8 5 -11 10 -3 6 -1 10 4 10 6 0 11 -4 11 -10z m10919 -517
c-2 -236 0 -617 5 -848 8 -385 8 -424 -8 -456 -26 -56 -680 -687 -873 -842
-90 -74 -130 -117 -150 -166 -17 -41 -19 -158 -4 -326 9 -115 17 -323 27 -787
3 -160 1 -219 -8 -224 -7 -5 -9 -2 -5 9 3 8 0 18 -8 20 -10 4 -13 40 -14 154
-1 168 -5 258 -27 636 -9 147 -14 325 -12 395 3 117 5 131 30 173 15 25 73 88
130 140 468 427 813 755 845 803 l28 41 -3 700 c-4 638 4 965 24 996 3 5 10 9
16 9 8 0 10 -125 7 -427z m-11104 387 c-3 -5 -11 -10 -16 -10 -6 0 -7 5 -4 10
3 6 11 10 16 10 6 0 7 -4 4 -10z m35 6 c0 -3 -4 -8 -10 -11 -5 -3 -10 -1 -10
4 0 6 5 11 10 11 6 0 10 -2 10 -4z m13231 -94 c68 -71 156 -181 219 -273 91
-134 138 -199 173 -236 22 -24 37 -46 34 -49 -12 -12 -37 13 -94 92 -32 44
-79 105 -104 135 -25 29 -87 109 -138 176 -51 67 -112 145 -137 172 -24 27
-44 52 -44 55 0 18 25 -2 91 -72z m909 68 c0 -5 -2 -10 -4 -10 -3 0 -8 5 -11
10 -3 6 -1 10 4 10 6 0 11 -4 11 -10z m-390 -54 c0 -12 -14 5 -31 39 -8 16 -6
15 10 -4 12 -13 21 -28 21 -35z m365 34 c3 -5 1 -10 -4 -10 -6 0 -11 5 -11 10
0 6 2 10 4 10 3 0 8 -4 11 -10z m41 -21 c19 -22 19 -22 -3 -10 -13 6 -23 16
-23 21 0 15 5 12 26 -11z m-14186 -13 c0 -3 -4 -8 -10 -11 -5 -3 -10 -1 -10 4
0 6 5 11 10 11 6 0 10 -2 10 -4z m-70 -80 c0 -3 -4 -8 -10 -11 -5 -3 -10 -1
-10 4 0 6 5 11 10 11 6 0 10 -2 10 -4z m-45 -18 c-26 -16 -55 -20 -55 -9 0 8
18 14 65 19 6 1 1 -4 -10 -10z m14003 -93 c-3 -3 -9 2 -12 12 -6 14 -5 15 5 6
7 -7 10 -15 7 -18z m476 -11 c8 -21 -22 -17 -33 5 -9 16 -8 18 8 14 11 -3 22
-11 25 -19z m-54 -3 c0 -9 38 -24 56 -22 11 1 27 -39 20 -47 -2 -2 -15 6 -28
17 -12 10 -34 29 -48 40 -14 11 -19 20 -12 21 6 0 12 -4 12 -9z m10 -51 c8 -5
11 -10 5 -10 -5 0 -17 5 -25 10 -8 5 -10 10 -5 10 6 0 17 -5 25 -10z m-14535
-10 c-3 -5 -11 -10 -16 -10 -6 0 -7 5 -4 10 3 6 11 10 16 10 6 0 7 -4 4 -10z
m14666 -145 c26 -64 50 -119 53 -122 3 -4 6 -13 6 -22 0 -9 7 -29 15 -45 9
-16 14 -31 12 -32 -2 -2 -10 8 -17 24 -8 15 -23 41 -35 57 -11 17 -19 32 -18
35 2 3 -3 5 -10 5 -6 1 -25 7 -42 15 -26 11 -27 14 -10 18 10 2 21 -1 23 -7 2
-6 11 -11 19 -11 13 0 13 3 3 15 -8 10 -9 15 -2 15 7 0 4 12 -6 30 -9 16 -21
30 -25 30 -5 0 -5 -4 -2 -10 8 -14 3 -13 -34 6 -18 9 -30 18 -27 21 2 2 14 -1
26 -7 18 -10 24 -9 31 1 5 8 9 17 9 21 0 6 -71 51 -123 77 -15 7 -26 15 -24
17 2 2 26 -7 53 -21 27 -14 52 -25 57 -25 16 0 5 18 -18 28 -37 17 -31 33 7
18 29 -12 38 -27 79 -131z m-14621 127 c0 -10 -33 -27 -70 -38 -22 -6 -23 -5
-12 9 8 9 19 14 26 11 6 -2 20 2 31 10 24 18 25 19 25 8z m14130 -32 c6 -11 8
-20 6 -20 -3 0 -10 9 -16 20 -6 11 -8 20 -6 20 3 0 10 -9 16 -20z m50 -94 c5
-14 8 -26 6 -26 -5 0 -46 78 -46 88 0 11 29 -34 40 -62z m367 48 c-3 -3 -12
-4 -19 -1 -8 3 -5 6 6 6 11 1 17 -2 13 -5z m33 -14 c0 -5 -4 -10 -10 -10 -5 0
-10 5 -10 10 0 6 5 10 10 10 6 0 10 -4 10 -10z m-14640 -20 c0 -5 -5 -10 -11
-10 -5 0 -7 5 -4 10 3 6 8 10 11 10 2 0 4 -4 4 -10z m2927 -27 c-3 -10 -5 -4
-5 12 0 17 2 24 5 18 2 -7 2 -21 0 -30z m11743 -35 c0 -3 -9 -4 -20 -1 -16 4
-18 8 -9 20 10 11 14 11 20 1 5 -7 9 -16 9 -20z m-14690 18 c0 -3 -4 -8 -10
-11 -5 -3 -10 -1 -10 4 0 6 5 11 10 11 6 0 10 -2 10 -4z m2947 -53 c-3 -10 -5
-2 -5 17 0 19 2 27 5 18 2 -10 2 -26 0 -35z m11367 -22 c-5 -6 -33 31 -33 44
-1 6 8 -1 19 -15 10 -14 17 -27 14 -29z m-14334 29 c0 -5 -5 -10 -11 -10 -5 0
-7 5 -4 10 3 6 8 10 11 10 2 0 4 -4 4 -10z m400 0 c0 -5 -8 -10 -17 -10 -15 0
-16 2 -3 10 19 12 20 12 20 0z m14216 -18 c-4 -3 -14 2 -24 12 -16 18 -16 18
6 6 13 -6 21 -14 18 -18z m-14651 8 c-3 -5 -12 -10 -18 -10 -7 0 -6 4 3 10 19
12 23 12 15 0z m3002 -102 c-2 -18 -4 -6 -4 27 0 33 2 48 4 33 2 -15 2 -42 0
-60z m11739 61 c3 -5 1 -9 -5 -9 -17 0 -41 12 -41 20 0 10 38 1 46 -11z m38
-35 c5 -14 4 -15 -9 -4 -17 14 -19 20 -6 20 5 0 12 -7 15 -16z m-19 -82 c-3
-3 -11 0 -18 7 -9 10 -8 11 6 5 10 -3 15 -9 12 -12z m-14775 4 c0 -3 -4 -8
-10 -11 -5 -3 -10 -1 -10 4 0 6 5 11 10 11 6 0 10 -2 10 -4z m3017 -28 c-3 -7
-5 -2 -5 12 0 14 2 19 5 13 2 -7 2 -19 0 -25z m11479 -51 c14 -27 23 -54 21
-60 -4 -11 -77 124 -77 140 1 13 30 -29 56 -80z m374 53 c0 -5 -4 -10 -10 -10
-5 0 -10 5 -10 10 0 6 5 10 10 10 6 0 10 -4 10 -10z m-14910 -10 c0 -5 -5 -10
-11 -10 -5 0 -7 5 -4 10 3 6 8 10 11 10 2 0 4 -4 4 -10z m-30 -10 c0 -5 -5
-10 -11 -10 -5 0 -7 5 -4 10 3 6 8 10 11 10 2 0 4 -4 4 -10z m3094 -148 c-1
-65 -3 -227 -3 -361 -1 -134 -3 -242 -6 -239 -4 4 -11 185 -16 419 -1 53 2
102 6 109 4 7 3 15 -2 19 -12 8 -14 81 -2 81 5 0 9 28 10 63 0 36 3 54 8 44 4
-11 6 -71 5 -135z m-3099 98 c-3 -5 -11 -10 -16 -10 -6 0 -7 5 -4 10 3 6 11
10 16 10 6 0 7 -4 4 -10z m14555 -69 c-5 -11 -10 -31 -10 -46 0 -15 -4 -24
-10 -20 -14 9 -12 53 3 70 18 21 29 18 17 -4z m-14590 -45 c0 -3 -4 -8 -10
-11 -5 -3 -10 -1 -10 4 0 6 5 11 10 11 6 0 10 -2 10 -4z m3077 -18 c-3 -8 -6
-5 -6 6 -1 11 2 17 5 13 3 -3 4 -12 1 -19z m8823 7 c0 -8 10 -17 23 -19 36 -8
299 -45 472 -67 88 -11 193 -29 233 -40 81 -21 164 -60 144 -66 -6 -3 -9 -10
-6 -15 5 -7 2 -8 -5 -4 -7 5 -65 23 -129 42 -112 32 -291 63 -517 89 -27 3
-61 8 -75 10 -14 2 -45 7 -70 10 -25 4 -55 16 -67 28 -24 21 -31 47 -13 47 6
0 10 -7 10 -15z m-11960 -25 c0 -5 -4 -10 -10 -10 -5 0 -10 5 -10 10 0 6 5 10
10 10 6 0 10 -4 10 -10z m34 -25 c-7 -16 -24 -21 -24 -6 0 8 7 13 27 20 1 1 0
-6 -3 -14z m-78 -92 c-10 -10 -19 5 -10 18 6 11 8 11 12 0 2 -7 1 -15 -2 -18z
m44 7 c0 -5 -5 -10 -11 -10 -5 0 -7 5 -4 10 3 6 8 10 11 10 2 0 4 -4 4 -10z
m-83 -22 c-3 -8 -6 -5 -6 6 -1 11 2 17 5 13 3 -3 4 -12 1 -19z m12486 -153
c203 -20 327 -53 309 -82 -5 -8 -32 -5 -103 12 -131 31 -414 61 -433 46 -12
-10 -14 -86 -14 -439 0 -235 -3 -438 -7 -452 -4 -14 -8 -59 -10 -100 -6 -104
-16 -170 -27 -170 -5 0 -21 -12 -35 -27 -30 -32 -21 -10 11 25 21 23 21 32 26
591 5 586 7 609 45 595 7 -3 19 2 26 10 9 10 23 14 37 11 13 -3 92 -12 175
-20z m-9476 -197 c-2 -29 -3 -8 -3 47 0 55 1 79 3 53 2 -26 2 -71 0 -100z m30
10 c-3 -7 -5 -2 -5 12 0 14 2 19 5 13 2 -7 2 -19 0 -25z m12110 -220 c-3 -8
-6 -5 -6 6 -1 11 2 17 5 13 3 -3 4 -12 1 -19z m59 -202 c19 -77 34 -147 33
-155 -1 -17 -89 317 -88 334 1 23 22 -48 55 -179z m328 25 c4 -6 5 -11 2 -11
-11 0 -29 45 -32 79 -3 33 -2 32 10 -10 7 -26 16 -52 20 -58z m-221 -491 c65
-279 143 -678 134 -686 -2 -2 -21 80 -41 183 -39 198 -59 291 -125 593 -40
180 -45 208 -37 199 2 -2 33 -132 69 -289z m-10588 121 c-14 -44 -14 -65 0
-104 21 -59 17 -80 -6 -32 -21 44 -24 91 -9 129 11 30 24 36 15 7z m265 -47
c0 -18 -9 -42 -19 -55 l-20 -24 15 44 c8 25 13 56 9 70 -4 20 -3 22 5 11 5 -8
10 -29 10 -46z m10690 -238 c0 -3 -4 -8 -10 -11 -5 -3 -10 -1 -10 4 0 6 5 11
10 11 6 0 10 -2 10 -4z m-3470 -17 c0 -10 -31 -20 -41 -13 -17 10 -9 19 16 19
14 0 25 -3 25 -6z m-7322 -731 c-10 -265 -22 -519 -26 -563 -8 -73 -9 -66 -10
90 -3 252 33 970 47 961 3 -2 -2 -222 -11 -488z m-248 175 c-7 -120 -18 -324
-25 -453 l-12 -235 -1 180 c-1 99 3 239 8 310 5 72 12 191 15 265 7 137 11
168 21 157 4 -3 1 -104 -6 -224z m7819 194 c-2 -1 -13 -9 -24 -17 -19 -14 -19
-14 -6 3 7 9 18 17 24 17 6 0 8 -1 6 -3z m-987 -179 c136 -40 186 -251 76
-318 -18 -11 -50 -20 -70 -20 l-38 0 -1 -247 c0 -271 -3 -323 -17 -348 -10
-20 -22 207 -22 440 l0 153 -45 37 c-59 48 -75 81 -75 154 0 71 11 103 46 136
30 28 81 33 146 13z m-12015 -98 c15 -33 6 -71 -16 -68 -11 2 -17 -5 -19 -22
-1 -14 -9 -56 -17 -95 -8 -38 -35 -178 -61 -310 -25 -132 -50 -247 -56 -255
-7 -11 -8 -8 -4 11 9 43 57 311 66 369 4 30 15 93 24 140 20 106 28 174 26
223 -1 35 1 38 22 35 13 -2 28 -14 35 -28z m4497 -35 c4 -27 3 -33 -2 -20 -13
29 -24 93 -13 75 5 -8 12 -33 15 -55z m362 -214 c-4 -135 -11 -268 -16 -296
-6 -31 -7 42 -3 190 4 132 6 274 5 315 -1 59 1 71 10 56 8 -14 9 -93 4 -265z
m-606 253 c-8 -8 -19 -36 -27 -62 -13 -45 -13 -45 -9 -8 5 36 29 86 42 86 4 0
1 -7 -6 -16z m11231 -1 c0 -10 2 -27 4 -38 2 -11 6 -38 9 -60 3 -22 12 -71 20
-110 9 -38 16 -79 16 -89 0 -34 -12 -9 -26 56 -8 35 -16 70 -19 78 -9 29 -35
155 -35 167 0 20 30 15 31 -4z m887 -17 c-2 -11 -9 -21 -16 -21 -49 0 -38
-112 27 -262 13 -29 21 -57 19 -64 -2 -6 -20 33 -40 87 -65 177 -72 224 -38
267 24 30 53 26 48 -7z m-16128 -74 c0 -5 -31 -49 -69 -99 -38 -50 -92 -128
-120 -174 -53 -86 -69 -93 -27 -11 32 60 65 109 146 210 67 85 70 87 70 74z
m15970 -162 c114 -171 125 -192 133 -245 6 -37 5 -36 -12 13 -10 29 -68 125
-128 215 -131 194 -133 197 -109 177 10 -8 62 -80 116 -160z m157 133 c-3 -10
-5 -4 -5 12 0 17 2 24 5 18 2 -7 2 -21 0 -30z m-11880 5 c-3 -8 -6 -5 -6 6 -1
11 2 17 5 13 3 -3 4 -12 1 -19z m11890 -70 c-3 -7 -5 -2 -5 12 0 14 2 19 5 13
2 -7 2 -19 0 -25z m-12010 -160 c-3 -7 -5 -2 -5 12 0 14 2 19 5 13 2 -7 2 -19
0 -25z m11183 -33 c0 -8 -4 -15 -10 -15 -5 0 -10 7 -10 15 0 8 5 15 10 15 6 0
10 -7 10 -15z m23 -102 c4 -18 3 -33 -2 -33 -8 0 -21 59 -20 90 0 20 14 -15
22 -57z m16 -91 c0 -30 -2 -33 -9 -17 -12 28 -12 67 0 60 6 -3 10 -23 9 -43z
m-2802 -39 c-25 -32 -61 -76 -82 -98 -30 -33 -28 -28 12 25 48 66 103 130 110
130 2 0 -16 -26 -40 -57z m3570 35 c-3 -8 -6 -5 -6 6 -1 11 2 17 5 13 3 -3 4
-12 1 -19z m-11210 -60 c-3 -8 -6 -5 -6 6 -1 11 2 17 5 13 3 -3 4 -12 1 -19z
m10465 -53 c3 -14 2 -25 -2 -25 -4 0 -10 11 -12 25 -3 14 -2 25 2 25 4 0 10
-11 12 -25z m18 -71 c0 -8 -4 -14 -10 -14 -5 0 -10 9 -10 21 0 11 5 17 10 14
6 -3 10 -13 10 -21z m-15813 -56 c-3 -7 -5 -2 -5 12 0 14 2 19 5 13 2 -7 2
-19 0 -25z m15818 23 c3 -5 1 -12 -5 -16 -5 -3 -10 1 -10 9 0 18 6 21 15 7z"/>
<path d="M7518 14403 c7 -3 16 -2 19 1 4 3 -2 6 -13 5 -11 0 -14 -3 -6 -6z"/>
<path d="M12320 14399 c0 -7 12 -10 30 -7 17 3 27 1 23 -3 -4 -4 -33 -10 -63
-13 -41 -4 -49 -3 -30 4 18 7 10 8 -30 4 -30 -4 -71 -6 -90 -6 -19 0 -29 -2
-22 -5 17 -7 5 -23 -13 -17 -8 4 -12 11 -9 16 4 7 -9 8 -37 3 -24 -3 -57 -9
-74 -11 -16 -2 -55 -9 -84 -15 -30 -6 -69 -12 -85 -14 -91 -7 -157 -20 -205
-41 -62 -28 -72 -30 -45 -9 35 27 0 15 -89 -29 -74 -37 -85 -40 -66 -20 37 40
17 35 -41 -8 -30 -23 -46 -32 -36 -20 35 40 10 33 -45 -12 -30 -25 -55 -43
-57 -41 -2 2 4 18 13 37 l17 33 -40 -39 c-25 -24 -45 -35 -52 -31 -8 5 -20 -2
-32 -16 -14 -16 -18 -18 -14 -6 3 9 2 17 -3 17 -9 0 -50 -118 -52 -148 -1 -9
-7 1 -14 23 l-12 40 -8 -67 c-8 -76 1 -181 16 -173 11 7 31 -40 27 -63 -2 -8
3 -17 10 -19 6 -3 12 2 12 11 0 9 5 16 10 16 6 0 10 -7 10 -15 0 -19 -4 -19
62 4 30 10 72 21 94 24 21 3 66 13 99 22 33 10 78 21 100 25 22 4 83 17 135
28 52 12 133 26 180 33 47 7 103 18 125 26 22 8 78 21 125 28 47 8 117 21 155
30 39 8 124 22 190 30 66 8 143 20 170 27 53 12 335 14 420 2 61 -8 221 -49
273 -70 75 -32 151 -74 247 -138 54 -36 101 -64 103 -61 9 9 -50 118 -101 187
-169 228 -469 416 -717 448 -101 13 -410 13 -390 0 13 -8 12 -10 -2 -10 -10 0
-18 5 -18 10 0 6 -16 10 -35 10 -19 0 -35 -5 -35 -11z"/>
<path d="M13390 13386 c0 -2 8 -10 18 -17 15 -13 16 -12 3 4 -13 16 -21 21
-21 13z"/>
<path d="M6291 14656 c-13 -28 -28 -61 -34 -73 -6 -13 -8 -26 -4 -29 5 -5 33
49 50 99 4 10 11 16 16 13 14 -9 20 18 7 30 -9 8 -18 -3 -35 -40z"/>
<path d="M6313 14619 c3 -12 0 -22 -9 -26 -8 -3 -14 -13 -14 -22 1 -13 3 -13
16 4 8 11 17 19 19 18 3 -2 5 -1 5 2 0 3 0 14 0 25 0 11 -5 20 -11 20 -7 0 -9
-9 -6 -21z"/>
<path d="M6273 14530 c-6 -14 -13 -41 -17 -60 -6 -34 -5 -34 14 9 12 25 19 52
17 60 -3 12 -7 9 -14 -9z"/>
<path d="M6230 14410 c0 -5 5 -10 10 -10 6 0 10 5 10 10 0 6 -4 10 -10 10 -5
0 -10 -4 -10 -10z"/>
<path d="M6241 14304 c0 -11 3 -14 6 -6 3 7 2 16 -1 19 -3 4 -6 -2 -5 -13z"/>
<path d="M6202 14261 c-11 -7 -11 -9 1 -14 16 -6 27 0 27 15 0 10 -11 10 -28
-1z"/>
<path d="M6247 14204 c6 -15 23 -19 23 -5 0 5 -7 11 -14 14 -10 4 -13 1 -9 -9z"/>
<path d="M14306 14085 c-3 -8 -1 -15 4 -15 6 0 10 7 10 15 0 8 -2 15 -4 15 -2
0 -6 -7 -10 -15z"/>
<path d="M9726 11465 c-14 -11 -26 -26 -26 -33 0 -7 -5 -12 -11 -12 -5 0 -8
-3 -6 -7 8 -12 -39 -88 -52 -85 -6 1 -10 -1 -10 -5 4 -27 -2 -53 -12 -47 -8 4
-9 -1 -4 -17 5 -18 4 -20 -4 -9 -11 17 -20 11 -25 -17 -3 -11 -20 -51 -38 -89
-31 -63 -62 -161 -75 -239 -3 -16 -9 -38 -14 -48 -6 -9 -7 -22 -4 -27 3 -6 1
-10 -5 -10 -7 0 -10 -6 -7 -14 3 -8 3 -17 -1 -20 -3 -4 -7 -12 -8 -19 -2 -7
-10 -37 -19 -67 -10 -30 -19 -86 -21 -124 -2 -38 -5 -71 -8 -73 -2 -3 1 -21 8
-41 7 -21 11 -42 9 -48 -2 -6 8 -22 21 -35 14 -13 26 -29 26 -35 0 -10 52 -61
58 -56 1 1 26 -8 55 -20 28 -13 55 -22 60 -20 4 1 7 -2 7 -7 0 -14 224 -2 250
14 6 4 25 8 43 11 18 2 46 6 62 9 17 3 75 10 130 15 55 6 114 13 130 16 32 7
115 54 115 67 0 4 9 16 20 27 11 11 20 29 20 41 0 11 4 18 9 15 10 -7 21 39
12 52 -3 4 -14 11 -23 15 -10 3 -18 13 -18 22 0 8 -4 15 -10 15 -5 0 -19 10
-31 23 -12 12 -19 16 -15 10 4 -7 2 -13 -3 -13 -6 0 -11 6 -11 13 0 7 -16 19
-36 26 -39 14 -67 37 -77 64 -3 9 -12 17 -19 17 -7 0 -31 17 -54 38 -22 20
-69 62 -104 92 -35 30 -68 61 -74 68 -6 7 -20 23 -30 34 -16 18 -19 39 -21
132 -1 61 -6 147 -11 191 -4 44 -8 90 -8 102 -1 12 -4 25 -8 29 -5 4 -8 16 -8
26 0 11 -4 17 -9 14 -5 -3 -9 0 -8 7 1 49 -2 54 -42 53 -24 0 -50 -9 -65 -21z"/>
<path d="M10580 10588 c-42 -12 -86 -43 -101 -69 -10 -19 -8 -20 20 -16 17 3
33 2 36 -2 2 -5 30 -11 60 -15 67 -8 131 9 147 37 25 47 -80 90 -162 65z"/>
<path d="M9308 8813 c7 -3 16 -2 19 1 4 3 -2 6 -13 5 -11 0 -14 -3 -6 -6z"/>
<path d="M12487 8773 c-10 -9 -9 -23 2 -23 5 0 11 7 15 15 5 15 -5 20 -17 8z"/>
<path d="M12450 8740 c-9 -6 -10 -10 -3 -10 6 0 15 5 18 10 8 12 4 12 -15 0z"/>
<path d="M12392 8710 c2 -12 -15 -40 -24 -40 -5 0 -6 5 -3 11 4 6 -2 5 -14 -3
-26 -16 -27 -23 -2 -25 11 -1 31 9 45 22 14 13 34 28 43 34 15 8 12 10 -14 8
-17 -1 -31 -4 -31 -7z"/>
<path d="M9294 8678 c-4 -7 -4 -10 1 -6 4 4 15 2 23 -5 12 -10 14 -9 11 2 -7
20 -26 25 -35 9z"/>
<path d="M12306 8635 c-3 -8 -9 -15 -13 -14 -27 4 -35 -1 -23 -16 13 -16 35
-21 26 -6 -3 5 8 14 25 21 22 10 27 15 17 21 -19 12 -25 11 -32 -6z"/>
<path d="M4030 5036 c0 -9 -4 -16 -10 -16 -5 0 -10 -10 -10 -21 0 -18 2 -19
15 -9 9 7 13 15 10 18 -3 3 0 11 6 18 7 8 7 14 -1 19 -5 3 -10 -1 -10 -9z"/>
<path d="M3625 4710 c-3 -5 -1 -10 4 -10 6 0 11 5 11 10 0 6 -2 10 -4 10 -3 0
-8 -4 -11 -10z"/>
<path d="M3240 4210 c0 -5 5 -10 10 -10 6 0 10 5 10 10 0 6 -4 10 -10 10 -5 0
-10 -4 -10 -10z"/>
<path d="M2725 3200 c3 -5 8 -10 11 -10 2 0 4 5 4 10 0 6 -5 10 -11 10 -5 0
-7 -4 -4 -10z"/>
<path d="M16275 5180 c2 -4 14 -10 26 -13 16 -4 19 -3 11 5 -14 14 -45 20 -37
8z"/>
<path d="M16800 4810 c0 -5 7 -7 15 -4 8 4 15 8 15 10 0 2 -7 4 -15 4 -8 0
-15 -4 -15 -10z"/>
<path d="M16910 4680 c0 -5 5 -10 11 -10 5 0 7 5 4 10 -3 6 -8 10 -11 10 -2 0
-4 -4 -4 -10z"/>
<path d="M17010 4540 c0 -5 7 -10 15 -10 8 0 15 5 15 10 0 6 -7 10 -15 10 -8
0 -15 -4 -15 -10z"/>
<path d="M13489 2003 c-13 -16 -12 -17 4 -4 16 13 21 21 13 21 -2 0 -10 -8
-17 -17z"/>
<path d="M13446 1964 c-5 -14 -4 -15 9 -4 17 14 19 20 6 20 -5 0 -12 -7 -15
-16z"/>
<path d="M13749 1853 c-13 -16 -12 -17 4 -4 16 13 21 21 13 21 -2 0 -10 -8
-17 -17z"/>
<path d="M13997 959 c-53 -31 -61 -122 -17 -193 52 -82 145 -97 193 -31 24 33
25 121 2 165 -27 53 -130 87 -178 59z"/>
<path d="M13806 17790 c-17 -6 -18 -7 -3 -13 9 -3 19 -2 23 4 9 15 2 18 -20 9z"/>
<path d="M13820 17750 c0 -5 5 -10 10 -10 6 0 10 5 10 10 0 6 -4 10 -10 10 -5
0 -10 -4 -10 -10z"/>
<path d="M13850 17721 c0 -5 7 -11 15 -15 8 -3 15 -1 15 3 0 5 -7 11 -15 15
-8 3 -15 1 -15 -3z"/>
<path d="M13910 17660 c0 -5 7 -10 15 -10 8 0 15 5 15 10 0 6 -7 10 -15 10 -8
0 -15 -4 -15 -10z"/>
<path d="M13930 17620 c0 -5 7 -10 15 -10 8 0 15 5 15 10 0 6 -7 10 -15 10 -8
0 -15 -4 -15 -10z"/>
<path d="M14021 17554 c0 -11 3 -14 6 -6 3 7 2 16 -1 19 -3 4 -6 -2 -5 -13z"/>
<path d="M14010 17520 c-13 -9 -13 -11 0 -20 9 -6 18 -6 24 0 15 15 -6 31 -24
20z"/>
<path d="M14082 17398 c4 -12 48 -19 48 -7 0 7 -25 19 -42 19 -5 0 -8 -5 -6
-12z"/>
<path d="M14110 17345 c32 -18 40 -18 40 0 0 10 -10 15 -32 15 l-33 -1 25 -14z"/>
<path d="M6295 17330 c-3 -5 -1 -10 4 -10 6 0 11 5 11 10 0 6 -2 10 -4 10 -3
0 -8 -4 -11 -10z"/>
<path d="M14145 17310 c3 -5 10 -10 16 -10 5 0 9 5 9 10 0 6 -7 10 -16 10 -8
0 -12 -4 -9 -10z"/>
<path d="M14170 17270 c0 -5 5 -10 11 -10 5 0 7 5 4 10 -3 6 -8 10 -11 10 -2
0 -4 -4 -4 -10z"/>
<path d="M14213 17190 c1 -21 10 -18 13 5 1 8 -2 15 -6 15 -5 0 -8 -9 -7 -20z"/>
<path d="M6226 17135 c-3 -8 -1 -15 4 -15 13 0 22 18 11 24 -5 3 -11 -1 -15
-9z"/>
<path d="M14240 17140 c18 -12 30 -13 30 -2 0 4 -10 9 -22 9 -18 2 -20 0 -8
-7z"/>
<path d="M6216 17095 c-3 -8 -1 -15 4 -15 13 0 22 18 11 24 -5 3 -11 -1 -15
-9z"/>
<path d="M14275 17070 c3 -5 8 -10 11 -10 2 0 4 5 4 10 0 6 -5 10 -11 10 -5 0
-7 -4 -4 -10z"/>
<path d="M14306 17002 c-3 -5 1 -9 9 -9 8 0 12 4 9 9 -3 4 -7 8 -9 8 -2 0 -6
-4 -9 -8z"/>
<path d="M14896 14207 c3 -10 9 -15 12 -12 3 3 0 11 -7 18 -10 9 -11 8 -5 -6z"/>
<path d="M14890 13870 c0 -5 5 -10 11 -10 5 0 7 5 4 10 -3 6 -8 10 -11 10 -2
0 -4 -4 -4 -10z"/>
<path d="M14890 13790 c0 -5 5 -10 11 -10 5 0 7 5 4 10 -3 6 -8 10 -11 10 -2
0 -4 -4 -4 -10z"/>
<path d="M15292 7710 c0 -19 2 -27 5 -17 2 9 2 25 0 35 -3 9 -5 1 -5 -18z"/>
<path d="M4725 6160 c-3 -5 1 -10 9 -10 9 0 16 5 16 10 0 6 -4 10 -9 10 -6 0
-13 -4 -16 -10z"/>
<path d="M18285 1720 c-3 -5 -1 -10 4 -10 6 0 11 5 11 10 0 6 -2 10 -4 10 -3
0 -8 -4 -11 -10z"/>
<path d="M13730 1155 c-13 -14 -19 -25 -14 -25 8 1 50 50 41 50 -2 0 -14 -11
-27 -25z"/>
</g>
</svg>
